<svg xmlns="http://www.w3.org/2000/svg" xmlns:xlink="http://www.w3.org/1999/xlink" viewBox="0 0 768 768">
  <defs>
    <style>
      .cls-1 {
        fill: none;
      }

      .cls-2 {
        clip-path: url(#clip-path);
      }

      .cls-3 {
        clip-path: url(#clip-path-2);
      }

      .cls-4 {
        fill: #fff;
      }
    </style>
    <clipPath id="clip-path" transform="translate(0 -5.36)">
      <polygon class="cls-1" points="128.87 15.93 686.82 410.02 172.74 725.05 128.87 15.93"/>
    </clipPath>
    <clipPath id="clip-path-2" transform="translate(0 -5.36)">
      <rect class="cls-1" y="5.36" width="769.7" height="757.18"/>
    </clipPath>
  </defs>
  <title>get-out-cropped</title>
  <g id="imageclip">
    <g class="cls-2">
      <g id="get-out-cropped.psd">
        <g class="cls-3">
          <image id="get-out-cropped" width="861" height="845" transform="translate(0) scale(0.89)" xlink:href="get-out-cropped1.png"/>
        </g>
      </g>
    </g>
  </g>
  <g id="traces">
    <g id="_47" data-name="47">
      <path class="cls-4" d="M382.43,305.38c1.06-2.28,5.05,1.43,3.69,3.23a5.49,5.49,0,0,1-2.81,1.75,2.46,2.46,0,0,1-1.56-.1,1.26,1.26,0,0,1-.7-.51,1.36,1.36,0,0,1,0-1.31c.55,1.85,3.44,1.06,2.89-.8-1.16-3.9-6.27-1.79-6,1.77.3,3.93,4.86,4.73,7.81,3.22a7.39,7.39,0,0,0,3.59-3.48c.65-1.76-.12-3.46-1.2-4.86-1.94-2.51-6.5-4.18-8.24-.43-.81,1.74,1.78,3.27,2.59,1.51Z" />
    </g>
    <g id="_46" data-name="46">
      <path class="cls-4" d="M340.11,317.17c13.26,5.32,26.81,10.72,41.21,11.73,14.09,1,24.15-4.75,34.78-13.33,1.5-1.21-.63-3.32-2.12-2.12-5,4-10.09,8.19-16.11,10.49-6.64,2.54-13.9,2.45-20.85,1.51-12.56-1.7-24.42-6.48-36.11-11.17-1.79-.72-2.57,2.18-.8,2.89Z" />
    </g>
    <g id="_45" data-name="45">
      <path class="cls-4" d="M342.52,315.38a42.35,42.35,0,0,1,14.33-15.48c5.71-3.61,13.11-7.64,19.88-8.36,7.57-.8,15.6,3.06,22.38,6.07,6.24,2.76,12.06,6.14,16.9,11a1.5,1.5,0,0,0,2.12-2.12c-5.41-5.44-12-9.11-19-12.11s-15-6.78-22.93-5.85c-7.32.86-15.48,5.23-21.54,9.22a45.4,45.4,0,0,0-14.75,16.13c-.94,1.69,1.65,3.2,2.59,1.51Z" />
    </g>
    <g id="_44" data-name="44">
      <path class="cls-4" d="M339.66,295.81c5.91-15.43,29.11-17.23,43.17-16.47a81.87,81.87,0,0,1,42.71,14.89c1.58,1.11,3.08-1.49,1.51-2.59a84.66,84.66,0,0,0-49-15.42c-14.72.08-35.25,3.15-41.24,18.79-.69,1.8,2.21,2.58,2.89.8Z" />
    </g>
    <g id="_43" data-name="43">
      <path class="cls-4" d="M318,264.48c-1.21-10.4-.15-22,9.33-28.27,1.6-1.06.1-3.66-1.51-2.59-10.4,6.91-12.16,19.27-10.82,30.86.22,1.9,3.22,1.92,3,0Z" />
    </g>
    <g id="_42" data-name="42">
      <path class="cls-4" d="M376.27,335.32c11,19.78,1.7,42.78,4.66,63.94,1.48,10.58,4.5,20.58,4.64,31.36.13,9.39-.09,18.61,3.92,27.32.81,1.75,3.39.23,2.59-1.51-4.61-10-3-21.11-3.71-31.8s-4.58-21.15-5-32c-.85-19.75,5.74-40.43-4.47-58.8-.94-1.69-3.53-.18-2.59,1.51Z" />
    </g>
    <g id="_41" data-name="41">
      <path class="cls-4" d="M192,298.55c-7.38,4.89-12.87,13.6-9.38,22.59a16.68,16.68,0,0,0,20.74,9.56c7.26-2.41,13.72-10.85,11.16-18.7-2.77-8.5-12.47-13.3-20.75-14-1.92-.16-1.91,2.84,0,3a22,22,0,0,1,15.64,8.1c5.37,6.85.92,16.08-6.84,18.7-6.86,2.31-15-1.1-17.33-8.15-2.51-7.53,2.21-14.5,8.28-18.52,1.6-1.06.1-3.66-1.51-2.59Z" />
    </g>
    <g id="_40" data-name="40">
      <path class="cls-4" d="M195.66,308.49c5.29-1.23,10.32,4.18,7.31,9.25-1.39,2.34-4.56,4-7.21,2.65s-3.14-4.54-3.4-7.06l-1.9,1.45a4.6,4.6,0,0,0,3.24-.22c.55-.23,1-.62,1.51-.9l.66-.42q2.33-1.68,2.69,1.23c-1.92.11-1.93,3.11,0,3a3.68,3.68,0,0,0,2.93-5.91,4.78,4.78,0,0,0-3.82-1.87,6.41,6.41,0,0,0-2.5.56c-1.13.49-2.55,2-3.91,1.64a1.51,1.51,0,0,0-1.9,1.45c.41,4,1.72,8.72,6,10.16,3.59,1.2,7.58-.57,9.7-3.56,5.19-7.31-2-16.25-10.25-14.34-1.88.44-1.08,3.33.8,2.89Z" />
    </g>
    <g id="_39" data-name="39">
      <path class="cls-4" d="M234.78,313.14c-10.2-9.39-23.73-17.4-37.81-18.6-14.27-1.22-23.06,8.3-30.89,18.86-1.15,1.55,1.45,3,2.59,1.51,8-10.77,16.74-19.54,31.29-17,12.23,2.17,23.67,9,32.7,17.31,1.42,1.31,3.55-.81,2.12-2.12Z" />
    </g>
    <g id="_38" data-name="38">
      <path class="cls-4" d="M164.82,319.4c3.13,13.19,16.35,19.22,28.93,19.34,14.21.14,29.23-4.29,40.41-13.15,1.51-1.2-.62-3.31-2.12-2.12-15.53,12.31-57.82,22.55-64.33-4.86-.45-1.88-3.34-1.08-2.89.8Z" />
    </g>
    <g id="_37" data-name="37">
      <path class="cls-4" d="M235.72,295.38c-9.19-13-25.49-16.41-40.47-14a104.16,104.16,0,0,0-27,8.77c-7,3.25-13.08,8-15.47,15.54-.58,1.85,2.31,2.63,2.89.8C158,299.07,164.49,295,171.26,292a107.52,107.52,0,0,1,23-7.47c14-2.64,30.13,0,38.89,12.32,1.11,1.56,3.71.07,2.59-1.51Z" />
    </g>
    <g id="_36" data-name="36">
      <path class="cls-4" d="M187.59,345.23c5.69,16.42,6,33.72,5.17,50.89s-1.91,34.53-1.46,51.88c.48,18.33,1.92,36.61,3.36,54.89,1.3,16.54,3.11,32.95,8.79,48.64,6.18,17.07,15.25,33.63,14.83,52.28,0,1.93,3,1.93,3,0,.35-15.67-5.81-30-11.54-44.26-6.69-16.67-10.1-33.25-11.63-51.13-1.55-18.13-2.95-36.32-3.63-54.51s.13-36.07,1.09-54.16c1-18.62,1.08-37.48-5.09-55.32-.63-1.81-3.53-1-2.89.8Z" />
    </g>
    <g id="_35" data-name="35">
      <path class="cls-4" d="M231.72,329.76c-6.94,6.48-13.73,12.05-22.78,15.27-8.74,3.11-17.74,5.62-26.66,8.16a1.5,1.5,0,0,0,.8,2.89c9.94-2.83,20.15-5.46,29.75-9.32,8.19-3.29,14.64-8.93,21-14.88,1.41-1.32-.71-3.44-2.12-2.12Z" />
    </g>
    <g id="_34" data-name="34">
      <path class="cls-4" d="M376,291.28c-2.81,1.29-4.64,3-4.08,6.23-.08-.45,1.08,1.66,1.08,1.54,0,1.63-1.27,1.2-2.21,1.61-1.32.59-2.25.67-3.09,2-1.91,3-.12,8.25.93,11.21,1.29,3.64,3.54,6.72,7.24,8.15,8.25,3.2,20.82-2.1,23.84-10.52s-2.72-17.2-11.41-18.64c-1.89-.31-2.7,2.58-.8,2.89,8.64,1.43,13.4,11.26,7.2,18.3-5.89,6.68-19.53,8.91-23.18-1-.94-2.56-2.39-6.54-.38-8.5,1.52-1.48,3.25-.81,4.87-2.17,3.79-3.18-3.34-6.29,1.5-8.52,1.75-.81.23-3.39-1.51-2.59Z" />
    </g>
    <g id="_33" data-name="33">
      <path class="cls-4" d="M143.8,281.18c6.27-6.06,12.62-12.22,20.14-16.73,8.56-5.14,18-6.79,27.74-8s19.45-2.23,29.18-3.35l13.69-1.57c5.51-.63,14.63-2.93,17.36,3.91l1.45-1.9-18.82.58c-1.93.06-1.93,3.06,0,3l18.82-.58c.88,0,1.83-1,1.45-1.9-3.67-9.16-14.41-6.78-22.21-5.89l-37.17,4.26c-10,1.15-20.22,2.22-29.39,6.81s-16.94,12-24.36,19.18c-1.39,1.34.73,3.46,2.12,2.12Z" />
    </g>
    <g id="_32" data-name="32">
      <path class="cls-4" d="M438.63,277.66a50.65,50.65,0,0,0-36.1-25.8c-9.44-1.71-19.17-1.84-28.72-2.29q-15.46-.73-30.94-1.13A1.52,1.52,0,0,0,341.8,251a21.66,21.66,0,0,0,14.31,6c1.93.08,1.93-2.92,0-3a18.32,18.32,0,0,1-12.19-5.09l-1.06,2.56c17.83.47,36,.52,53.73,2.57C413.4,256,427.84,264,436,279.18c.92,1.7,3.51.19,2.59-1.51Z" />
    </g>
    <g id="_31" data-name="31">
      <path class="cls-4" d="M117.61,265.31l19.54-59.48c6-18.27,11.06-37.3,18.91-54.9,7.33-16.41,18.71-29,35.92-35s36.53-7.08,54.7-8.86c39.77-3.9,81.42-6.34,120.69,2.81,17.7,4.13,35,11.17,48.94,23.06,12.87,11,22.34,25.23,30.14,40.09a450.17,450.17,0,0,1,25.18,57.34c7.61,21.31,11.69,44.5,4.17,66.44-.55,1.61,1.93,2.64,2.74,1.16l6.4-11.67c.93-1.69-1.66-3.21-2.59-1.51L476,296.4l2.74,1.16c13.08-38.14-7.09-78.24-22.9-112.33-7.43-16-15.93-31.81-27.78-45S401.46,117.77,385,111.85C346.41,98,302.66,99.42,262.45,102.62c-19.59,1.56-39.74,2.86-59,7-16.56,3.56-31.54,10.86-41.6,24.89-12.13,16.93-17.15,38.75-23.55,58.24l-23.58,71.76c-.6,1.84,2.29,2.63,2.89.8Z" />
    </g>
    <g id="_30" data-name="30">
      <path class="cls-4" d="M283.86,234.41a50.46,50.46,0,0,0-2.58,27.38c.34,1.9,3.23,1.09,2.89-.8a47.55,47.55,0,0,1,2.58-25.79c.7-1.8-2.2-2.58-2.89-.8Z" />
    </g>
    <g id="_29" data-name="29">
      <path class="cls-4" d="M241.59,421.8c8.06,6.73,16.46-.65,24.19-3.87,1.76-.73,1-3.64-.8-2.89-6.18,2.58-14.68,10.15-21.28,4.64-1.47-1.23-3.61.88-2.12,2.12Z" />
    </g>
    <g id="_28" data-name="28">
      <path class="cls-4" d="M270.77,402.26a34.42,34.42,0,0,0-15.6,5.63c-1.36.94-4.25,4.37-4.13-.51,0-1.41,2-4,2.77-4.9,3.13-3.55,9.07-4.75,11.52.26.85,1.73,3.43.22,2.59-1.51a8.79,8.79,0,0,0-10.21-4.64c-4.74,1.15-8.11,5.55-9.57,10-1,3-.18,7.59,4.08,6.68,2.67-.57,5-3.32,7.42-4.6a31.42,31.42,0,0,1,11.12-3.41c1.89-.23,1.92-3.23,0-3Z" />
    </g>
    <g id="_27" data-name="27">
      <path class="cls-4" d="M298.73,419c6.18-3.76,12.8-.89,18.9,1.48,4.87,1.89,9.47,3.15,14.68,2.37,1.9-.28,1.09-3.17-.8-2.89-11.89,1.77-22.64-10.65-34.3-3.55-1.65,1-.14,3.6,1.51,2.59Z" />
    </g>
    <g id="_26" data-name="26">
      <path class="cls-4" d="M306.44,407.39c4.13-2.91,9.92-6.77,15.19-6.56l3.19.78.37,4.36c-.66,1.19-4.31.87-5.38.78-2.92-.25-5.68-1.46-8.36-2.58-1.78-.74-2.56,2.16-.8,2.89,4.46,1.86,9.91,4,14.73,2.12,2.88-1.15,4.89-3.82,3.71-7-3.76-10-19.15-1-24.16,2.58-1.57,1.1-.07,3.71,1.51,2.59Z" />
    </g>
    <g id="_25" data-name="25">
      <path class="cls-4" d="M339.93,378.53a22.57,22.57,0,0,1,6.93,25.75c-.65,1.82,2.25,2.6,2.89.8a25.5,25.5,0,0,0-7.7-28.66c-1.47-1.23-3.6.88-2.12,2.12Z" />
    </g>
    <g id="_24" data-name="24">
      <path class="cls-4" d="M304.57,338.52,311,367.65a1.51,1.51,0,0,0,1.45,1.1,18.91,18.91,0,0,1,10.29,2.16c1.71.89,3.23-1.7,1.51-2.59a21.94,21.94,0,0,0-11.8-2.57l1.45,1.1-6.43-29.13c-.42-1.88-3.31-1.09-2.89.8Z" />
    </g>
    <g id="_23" data-name="23">
      <path class="cls-4" d="M242.11,350.5a84.12,84.12,0,0,1-4.7,20c-.66,1.82,2.23,2.6,2.89.8a87.27,87.27,0,0,0,4.81-20.76c.21-1.92-2.79-1.9-3,0Z" />
    </g>
    <g id="_22" data-name="22">
      <path class="cls-4" d="M232.24,350.06a78.23,78.23,0,0,1-19.17,18.67c-1.58,1.09-.08,3.69,1.51,2.59a82.48,82.48,0,0,0,20.24-19.74c1.13-1.57-1.47-3.06-2.59-1.51Z" />
    </g>
    <g id="_21" data-name="21">
      <path class="cls-4" d="M235.46,461.47a149.52,149.52,0,0,1,15.15-10.8c4.38-2.71,11.25-8,16.61-7.75,4.94.25,9.23,4.57,14.28,5.25,4.64.63,9.33-.28,13.82-1.38,5.77-1.42,11.44-3.21,17.47-2.78,6.61.47,12.93,3.15,18.72,6.19a107,107,0,0,1,27.21,20.56c1.34,1.39,3.46-.73,2.12-2.12a109.29,109.29,0,0,0-28.57-21.43,54.21,54.21,0,0,0-17.31-6c-5.8-.79-11.3.31-16.89,1.74-7.19,1.83-14.62,3.88-21.71.53-4.24-2-7.6-4.44-12.5-3.15-5.2,1.37-10.26,4.92-14.77,7.72a155.7,155.7,0,0,0-15.76,11.27c-1.5,1.21.63,3.32,2.12,2.12Z" />
    </g>
    <g id="_20" data-name="20">
      <path class="cls-4" d="M219.78,504.49c10.58,2.63,20-2.41,28.87-7.63,12-7.05,24.6-9.67,38.34-11.27a80.75,80.75,0,0,1,36.33,4c11.08,3.78,21.8,8.57,33.42,10.53,1.89.32,2.7-2.57.8-2.89-11.33-1.91-21.81-6.52-32.61-10.26-11.25-3.89-22.33-5.75-34.24-4.73-11.09.95-23.28,2.37-33.58,6.76-11.8,5-22.7,16.06-36.53,12.62-1.87-.47-2.67,2.43-.8,2.89Z" />
    </g>
    <g id="_19" data-name="19">
      <path class="cls-4" d="M229.87,505.27c11.31-.78,21,5.72,31,10,9.11,3.94,18.7,7,28.66,7.69,10.61.69,20.07-2.44,29.84-6.21l32.82-12.65c1.78-.69,1-3.59-.8-2.89l-31,12c-10.7,4.13-21,7.84-32.65,6.66-11.22-1.13-21.84-5.31-31.92-10.16-8.25-4-16.52-8.07-25.92-7.43-1.92.13-1.93,3.13,0,3Z" />
    </g>
    <g id="_18" data-name="18">
      <path class="cls-4" d="M263.34,514.44c4.28-1.12,11.83-2.6,12.84,3.61.31,1.9,3.2,1.09,2.89-.8-1.3-8-10.7-7.24-16.53-5.71a1.5,1.5,0,0,0,.8,2.89Z" />
    </g>
    <g id="_17" data-name="17">
      <path class="cls-4" d="M277.93,515.25c4.17-.56,12.21-1.3,12.37,4.94.05,1.93,3.05,1.93,3,0-.22-8.13-9.26-8.76-15.37-7.94-1.89.25-1.91,3.26,0,3Z" />
    </g>
    <g id="_16" data-name="16">
      <path class="cls-4" d="M289.42,515.05c4.46-2.22,15.36-6.49,16.36,2.16.22,1.9,3.22,1.92,3,0a8.88,8.88,0,0,0-7.05-7.91c-4.87-1.17-9.57,1.05-13.82,3.17-1.73.86-.21,3.45,1.51,2.59Z" />
    </g>
    <g id="_15" data-name="15">
      <path class="cls-4" d="M306.35,512.57c4.93-1,10-1.8,14.39,1.34,1.57,1.13,3.07-1.47,1.51-2.59-5-3.61-11-2.75-16.7-1.64-1.89.37-1.09,3.26.8,2.89Z" />
    </g>
    <g id="_14" data-name="14">
      <path class="cls-4" d="M320.09,511.92a17,17,0,0,0,6-4c.59-.7.87-1.65,1.42-2.32,1.25-1.51,3.93,0,5.26.74a1.5,1.5,0,0,0,1.51-2.59c-2.16-1.23-6.14-2.94-8.42-1.09-1.06.87-1.25,2.42-2.15,3.44a15.31,15.31,0,0,1-5.12,3.22c-1.75.82-.22,3.41,1.51,2.59Z" />
    </g>
    <g id="_13" data-name="13">
      <path class="cls-4" d="M356.52,516.85a86.61,86.61,0,0,1-61,33.45c-22,1.78-50.5-4.37-61.16-26-.85-1.73-3.44-.21-2.59,1.51,10.86,22,39.41,28.92,62,27.59A89.38,89.38,0,0,0,358.64,519c1.17-1.51-.94-3.64-2.12-2.12Z" />
    </g>
    <g id="_12" data-name="12">
      <path class="cls-4" d="M293.7,571.24c9.45-.7,19.54-1.3,27.34,5.07,1.48,1.21,3.62-.9,2.12-2.12-8.49-6.95-19-6.72-29.46-6-1.91.14-1.93,3.14,0,3Z" />
    </g>
    <g id="_11" data-name="11">
      <path class="cls-4" d="M471.68,307a417.25,417.25,0,0,1-23.95,176.25,409.42,409.42,0,0,1-40.19,81.13c-16,24.89-35.3,48.86-62.35,62.23A119.29,119.29,0,0,1,251,631.14c-1.81-.68-2.59,2.22-.8,2.89a122,122,0,0,0,82.93.87c27.71-9.7,49-29.61,66.06-53,36.59-50,60.42-110,70.86-170.92a416.61,416.61,0,0,0,4.66-104c-.16-1.91-3.16-1.93-3,0Z" />
    </g>
    <g id="_10" data-name="10">
      <path class="cls-4" d="M238.08,624.26c-17.71-15.12-31.38-34-44.9-52.79s-27.27-38-37.67-59c-21.83-43.93-24.07-94.23-29-142.18l-8.87-85.78c-.2-1.9-3.2-1.92-3,0l8.16,78.88c2.51,24.24,4.6,48.57,8,72.71,3.36,23.85,8.5,47.56,18.29,69.67,9.59,21.66,23,41.31,36.76,60.51C201,587.54,216,609.34,236,626.38c1.46,1.25,3.59-.87,2.12-2.12Z" />
    </g>
    <g id="_9" data-name="9">
      <path class="cls-4" d="M119.92,277a190.63,190.63,0,0,1,14.62-132.52c20.24-40,55.18-71.13,96.67-87.85a184.8,184.8,0,0,1,127-4.28C400.37,66.31,437.56,95,460.36,133.26a190.65,190.65,0,0,1,20,146.8,1.5,1.5,0,0,0,2.89.8c12.24-44.46,7.6-92.8-12.34-134.34-19.8-41.24-54.94-73.63-97-91.41A187.61,187.61,0,0,0,243.58,49C201,62.68,163.37,91,139.76,129.07A193.67,193.67,0,0,0,117,277.83c.48,1.87,3.38,1.08,2.89-.8Z" />
    </g>
    <g id="_8" data-name="8">
      <path class="cls-4" d="M118,336.66c-7.3,17-12,35.62-12.25,54.23-.19,13.08,6.3,30.58,22.52,27.78,1.9-.33,1.09-3.22-.8-2.89-8.52,1.47-15.16-5.45-17.42-13-2-6.58-1.41-13.79-.78-20.53a146.66,146.66,0,0,1,11.32-44c.75-1.76-1.83-3.29-2.59-1.51Z" />
    </g>
    <g id="_7" data-name="7">
      <path class="cls-4" d="M117.09,358.12a23.08,23.08,0,0,0,1.59,18c.89,1.71,3.48.2,2.59-1.51A20,20,0,0,1,120,358.92c.59-1.84-2.31-2.63-2.89-.8Z" />
    </g>
    <g id="_6" data-name="6">
      <path class="cls-4" d="M110.89,378.5A16.19,16.19,0,0,1,111,394c-.9,1.71,1.69,3.22,2.59,1.51a19.35,19.35,0,0,0-.09-18.52c-.92-1.7-3.51-.19-2.59,1.51Z" />
    </g>
    <g id="_5" data-name="5">
      <path class="cls-4" d="M486.6,290.39c5.35-3.55,5.93,3.63,5.78,5.91a20.75,20.75,0,0,1-1.2,4.79,60.36,60.36,0,0,0-2.19,8.84,64,64,0,0,0-.15,16.85c1.35,12,5.14,23.38,8.07,35,3.15,12.47,5.52,25.81,1.93,38.46-1.66,5.87-4.76,11.8-10.27,14.87-5.25,2.92-12.49,1.78-15.65-3.56a1.5,1.5,0,0,0-2.59,1.51c6.08,10.29,19.8,7.25,26.13-1,9.33-12.16,8-29.68,5.05-43.77-3.72-17.92-11.57-35.7-10-54.35.41-4.82,1.82-9.14,3.1-13.76.76-2.74,1.4-5.7.44-8.49-1.47-4.26-6-6.52-10-3.9-1.6,1.06-.1,3.66,1.51,2.59Z" />
    </g>
    <g id="_4" data-name="4">
      <path class="cls-4" d="M477.12,334.33c4.18,4.69,8.72,9.71,10.16,16a22.38,22.38,0,0,1-3.89,18.19c-1.12,1.57,1.48,3.07,2.59,1.51a25.14,25.14,0,0,0,4.49-19c-1.31-7.49-6.34-13.32-11.23-18.82-1.29-1.45-3.4.68-2.12,2.12Z" />
    </g>
    <g id="_3" data-name="3">
      <path class="cls-4" d="M487.67,316.82a5,5,0,0,1,.37-2.71,1.54,1.54,0,0,0-.54-2.05,1.51,1.51,0,0,0-2.05.54,8,8,0,0,0-.78,4.23,1.54,1.54,0,0,0,1.5,1.5,1.51,1.51,0,0,0,1.5-1.5Z" />
    </g>
    <g id="_2" data-name="2">
      <path class="cls-4" d="M281.94,431a34.43,34.43,0,0,1-2.33,9.94c-.74,1.82-2.51,4-2.5,6,0,3.69,6.77,4.72,9.2,5.64,1.81.68,2.59-2.21.8-2.89s-4.83-1.15-5.9-2.88c-1-1.54.57-3.22,1.25-4.92A38.47,38.47,0,0,0,284.94,431c.17-1.92-2.83-1.91-3,0Z" />
    </g>
    <g id="_1" data-name="1">
      <path class="cls-4" d="M369.78,355.29a76.19,76.19,0,0,1-29.43-18.87c-3.54-3.68-6.67-7.78-10.69-11-3-2.4-6.81-3.86-7.09-8.2s3.2-7.39,6.06-10.1c1.4-1.33-.72-3.45-2.12-2.12-3.91,3.71-8.6,8.77-6.8,14.7.73,2.42,2.47,4,4.42,5.47a69,69,0,0,1,9.8,8.62c9.91,11,21,19.36,35.06,24.37,1.82.65,2.61-2.25.8-2.89Z" />
    </g>
  </g>
</svg>
