<svg xmlns="http://www.w3.org/2000/svg" xmlns:xlink="http://www.w3.org/1999/xlink" viewBox="0 0 1344.51 774.01">
  <defs>
    <style>
      .cls-1 { fill: none; } .cls-2 { clip-path: url(#clip-path); } .cls-4 { opacity: 0.2; } .cls-5 { fill: #fff; }
    </style>
    <clipPath id="clip-path" transform="translate(378.98 -4.13)">
      <path class="cls-1" d="M129 16l557.8 394-514 315-44-709z"/>
    </clipPath>
  </defs>
  <title>
    get-out-768
  </title>
  <g class="cls-2" id="imageclip">
    <g class="cls-3" id="get-out-20172203.psd">
      <image id="get-out-20172203" width="1504" height="845" transform="matrix(.89 0 0 .89 0 1.35)" xlink:href="get-out-7681.png"/>
    </g>
    <path class="cls-4" d="M32 0h1130.7v774H32z"/>
  </g>
  <g id="traces">
    <path class="cls-5" d="M761.4 301.3c1-2.3 5 1.4 3.7 3.2a5.5 5.5 0 0 1-2.7 1.7 2.5 2.5 0 0 1-1.6 0 1.3 1.3 0 0 1-.7-.6 1.4 1.4 0 0 1 0-1.3c.6 2 3.5 1 3-.8-1.2-4-6.3-1.8-6 1.8.2 4 4.8 4.7 7.7 3.2a7.4 7.4 0 0 0 3.6-3.5c.7-1.7 0-3.4-1.2-4.8-1.8-2.6-6.4-4.2-8-.5-1 1.8 1.7 3.3 2.5 1.5z" id="_47" data-name="47"/>
    <path class="cls-5" d="M719 313c13.4 5.4 27 10.8 41.3 11.8 14 1 24.2-4.8 34.8-13.4 1.6-1.2-.5-3.3-2-2-5 4-10 8-16 10.4-6.8 2.6-14 2.5-21 1.5-12.6-1.7-24.4-6.5-36-11-2-1-2.7 2-1 2.7z" id="_46" data-name="46"/>
    <path class="cls-5" d="M721.5 311.3a42.4 42.4 0 0 1 14.3-15.5c5.7-3.6 13-7.7 20-8.4 7.5-.8 15.5 3 22.3 6 6.3 2.8 12.2 6.2 17 11a1.5 1.5 0 0 0 2-2c-5.3-5.5-12-9.2-19-12.2s-15-6.7-22.8-5.8c-7.3 1-15.5 5.2-21.6 9.2a45.4 45.4 0 0 0-14.7 16c-1 1.8 1.5 3.3 2.5 1.7z" id="_45" data-name="45"/>
    <path class="cls-5" d="M718.6 291.7c6-15.4 29.2-17.2 43.2-16.5a82 82 0 0 1 42.7 15c1.6 1 3-1.6 1.5-2.7a84.7 84.7 0 0 0-49-15.4c-14.7.2-35.2 3.2-41.2 19-.7 1.7 2.2 2.5 3 .7z" id="_44" data-name="44"/>
    <path class="cls-5" d="M697 260.4c-1.2-10.4-.2-22 9.3-28.3 1.6-1 0-3.6-1.5-2.5-10.4 7-12.2 19.3-10.8 31 .2 1.8 3.2 1.8 3 0z" id="_43" data-name="43"/>
    <path class="cls-5" d="M755.3 331.2c11 19.8 1.7 42.8 4.6 64 1.4 10.5 4.4 20.5 4.5 31.3.2 9.4 0 18.6 4 27.3.8 1.8 3.4.2 2.6-1.5-4.6-10-3-21-3.7-31.8s-4.5-21-5-32c-.8-19.8 5.8-40.4-4.4-58.8-1-1.7-3.7-.2-2.7 1.5z" id="_42" data-name="42"/>
    <path class="cls-5" d="M571 294.4c-7.4 5-13 13.6-9.4 22.6a16.7 16.7 0 0 0 20.7 9.6c7.3-2.4 13.8-11 11.2-18.7-2.8-8.6-12.5-13.4-20.8-14-2-.3-2 2.7 0 3a22 22 0 0 1 15.7 8c5.4 6.8 1 16-6.8 18.7-7 2.3-15-1-17.4-8.2-2.5-7.5 2.2-14.5 8.3-18.5 1.6-1 0-3.7-1.5-2.6z" id="_41" data-name="41"/>
    <path class="cls-5" d="M574.6 304.4c5.3-1.3 10.4 4 7.3 9.2-1.4 2.3-4.6 4-7.3 2.7s-3-4.6-3.4-7l-2 1.3a4.6 4.6 0 0 0 3.4-.2c.5-.2 1-.6 1.5-1l.6-.3q2.4-1.6 2.7 1.3c-2 0-2 3 0 3a3.7 3.7 0 0 0 3-6 4.8 4.8 0 0 0-4-1.7 6.4 6.4 0 0 0-2.4.5c-1 .6-2.4 2-3.8 1.8a1.5 1.5 0 0 0-2 1.4c.5 4 2 8.7 6 10.2 3.7 1.2 7.7-.6 9.8-3.6 5.2-7.3-2-16.2-10.2-14.3-2 .4-1 3.3.8 3z" id="_40" data-name="40"/>
    <path class="cls-5" d="M613.8 309c-10.2-9.4-23.8-17.4-37.8-18.6-14.3-1.2-23 8.3-31 19-1 1.4 1.5 3 2.7 1.4 8-10.8 16.7-19.6 31.2-17 12.2 2 23.6 9 32.6 17.3 1.5 1.4 3.6-.7 2.2-2z" id="_39" data-name="39"/>
    <path class="cls-5" d="M543.8 315.3c3 13.2 16.4 19.2 29 19.3 14 0 29.2-4.3 40.3-13 1.6-1.3-.5-3.5-2-2.3-15.5 12.3-57.8 22.6-64.3-4.8-.5-2-3.4-1-3 .8z" id="_38" data-name="38"/>
    <path class="cls-5" d="M614.7 291.3c-9.2-13-25.5-16.5-40.5-14a104.2 104.2 0 0 0-27 8.7c-7 3.3-13 8-15.4 15.6-.6 1.8 2.3 2.6 3 .8C537 295 543.4 291 550 288a107.5 107.5 0 0 1 23-7.6c14-2.6 30.2 0 39 12.3 1 1.6 3.6 0 2.5-1.5z" id="_37" data-name="37"/>
    <path class="cls-5" d="M566.6 341c5.7 16.5 6 33.8 5 51s-1.8 34.5-1.3 52c.5 18.2 2 36.5 3.3 54.8 1.3 16.5 3 33 8.8 48.6 6.2 17 15.3 33.6 15 52.3 0 2 3 2 3 0 .2-15.7-6-30-11.7-44.3-6.7-16.7-10-33.2-11.6-51-1.5-18.2-3-36.4-3.5-54.6s0-36 1-54.2c1-18.6 1-37.5-5-55.3-.7-1.8-3.6-1-3 .8z" id="_36" data-name="36"/>
    <path class="cls-5" d="M610.7 325.6c-7 6.5-13.7 12-22.8 15.3-8.8 3-17.8 5.5-26.7 8a1.5 1.5 0 0 0 .8 3c10-3 20.2-5.5 29.8-9.4 8.2-3.3 14.7-9 21-15 1.4-1.2-.7-3.3-2-2z" id="_35" data-name="35"/>
    <path class="cls-5" d="M755 287c-2.8 1.4-4.7 3-4 6.4-.2-.5 1 1.6 1 1.5 0 1.6-1.3 1-2.2 1.5-1.3.6-2.3.7-3 2-2 3-.2 8.3.8 11.2 1.3 3.7 3.5 6.8 7.2 8.2 8.3 3 21-2.2 24-10.6s-2.8-17.2-11.5-18.7c-2-.3-2.7 2.6-.8 3 8.6 1.4 13.4 11.2 7.2 18.2-6 6.6-19.5 8.8-23.2-1-1-2.6-2.4-6.6-.4-8.6 1.6-1.5 3.4-.8 5-2 3.8-3.3-3.3-6.4 1.5-8.7 1.7-.8.2-3.4-1.5-2.6z" id="_34" data-name="34"/>
    <path class="cls-5" d="M522.8 277c6.3-6 12.6-12.2 20-16.7 8.7-5 18-6.8 28-8l29-3.3 13.7-1.6c5.5-.6 14.7-3 17.4 4l1.3-2-18.8.6c-2 0-2 3 0 3l18.8-.6c1 0 2-1 1.5-2-3.7-9-14.4-6.7-22.2-5.8l-37.2 4.3c-10 1-20.2 2-29.4 6.7s-17 12-24.3 19.2c-1.4 1.2.7 3.3 2 2z" id="_33" data-name="33"/>
    <path class="cls-5" d="M817.6 273.5a50.6 50.6 0 0 0-36-25.8c-9.5-1.7-19.3-1.8-28.8-2.3q-15.5-.7-31-1a1.5 1.5 0 0 0-1 2.5 21.7 21.7 0 0 0 14.3 6c2 0 2-3 0-3a18.3 18.3 0 0 1-12-5.2l-1.2 2.5c18 .5 36 .6 53.8 2.6 16.8 2 31.2 10 39.4 25 1 1.8 3.5.2 2.6-1.5z" id="_32" data-name="32"/>
    <path class="cls-5" d="M496.6 261.2l19.5-59.5c6-18.3 11.2-37.3 19-55 7.4-16.3 18.7-29 36-35s36.5-7 54.7-8.8c39.7-4 81.4-6.4 120.6 2.8 17.7 4 35 11 49 23 13 11 22.3 25.2 30 40a450.2 450.2 0 0 1 25.3 57.4c7.6 21.4 11.7 44.5 4.2 66.5-.6 1.6 2 2.6 2.7 1l6.4-11.5c.8-1.7-1.7-3.2-2.7-1.5l-6.3 11.6 2.7 1c13-38-7-78-23-112.2-7.3-16-15.8-31.7-27.7-45s-26.6-22.4-43-28.3c-38.6-13.8-82.4-12.4-122.6-9.2-19.6 1.6-39.7 3-59 7-16.5 3.6-31.5 11-41.6 25-12 16.8-17 38.6-23.5 58l-23.6 72c-.6 1.7 2.3 2.5 3 .7z" id="_31" data-name="31"/>
    <path class="cls-5" d="M662.8 230.3a50.5 50.5 0 0 0-2.5 27.4c.3 2 3.2 1 3-.8a47.5 47.5 0 0 1 2.4-26c.7-1.7-2.2-2.5-3-.7z" id="_30" data-name="30"/>
    <path class="cls-5" d="M620.6 417.7c8 6.7 16.4-.7 24.2-4 1.7-.6 1-3.5-.8-2.8-6.2 2.5-14.7 10-21.3 4.6-1.5-1.3-3.6.8-2 2z" id="_29" data-name="29"/>
    <path class="cls-5" d="M649.8 398A34.4 34.4 0 0 0 634 404c-1.4 1-4.3 4.3-4.2-.6 0-1.4 2-4 2.8-4.8 3-3.6 9-4.8 11.5.2 1 1.7 3.4.2 2.6-1.5a8.8 8.8 0 0 0-10.3-4.5c-4.8 1-8 5.5-9.6 10-1 3 0 7.6 4.2 6.6 2.7-.4 5-3.2 7.4-4.5a31.4 31.4 0 0 1 11-3.4c2 0 2-3 0-3z" id="_28" data-name="28"/>
    <path class="cls-5" d="M677.7 415c6.2-4 12.8-1 19 1.4 4.8 1.8 9.4 3 14.6 2.3 2-.3 1-3-.8-3-12 2-22.6-10.5-34.3-3.4-1.7 1 0 3.6 1.5 2.6z" id="_27" data-name="27"/>
    <path class="cls-5" d="M685.4 403.3c4.2-3 10-6.8 15.2-6.6l3.2.8.4 4.3c-.7 1.2-4.3 1-5.4.8-3-.2-5.7-1.4-8.4-2.6-1.7-.7-2.5 2.2-.8 3 4.5 1.8 10 4 14.8 2 2.8-1 5-3.8 3.7-7-3.7-10-19-1-24 2.6-1.7 1-.2 3.7 1.4 2.6z" id="_26" data-name="26"/>
    <path class="cls-5" d="M719 374.4a22.6 22.6 0 0 1 6.8 25.8c-.6 1.8 2.3 2.5 3 .7a25.5 25.5 0 0 0-7.8-28.7c-1.4-1.2-3.6 1-2 2z" id="_25" data-name="25"/>
    <path class="cls-5" d="M683.5 334.4l6.5 29a1.5 1.5 0 0 0 1.4 1.2 19 19 0 0 1 10.3 2.2c1.7 1 3.2-1.7 1.5-2.6a22 22 0 0 0-11.8-2.6l1.5 1-6.5-29c-.5-2-3.4-1-3 .8z" id="_24" data-name="24"/>
    <path class="cls-5" d="M621 346.4a84 84 0 0 1-4.6 20c-.7 1.8 2.2 2.6 3 .8a87.3 87.3 0 0 0 4.7-20.8c.3-2-2.7-2-3 0z" id="_23" data-name="23"/>
    <path class="cls-5" d="M611.2 346a78.2 78.2 0 0 1-19.2 18.6c-1.5 1 0 3.7 1.6 2.6a82.5 82.5 0 0 0 20.2-19.7c1-1.6-1.5-3-2.6-1.6z" id="_22" data-name="22"/>
    <path class="cls-5" d="M614.4 457.3a149.5 149.5 0 0 1 15.2-10.8c4.4-2.7 11.2-8 16.6-7.7 5 .2 9.2 4.6 14.3 5.2 4.6.7 9.3-.2 13.8-1.3 5.8-1.5 11.4-3.2 17.5-2.8 6.6.4 13 3 18.7 6a107 107 0 0 1 27.2 20.6c1.3 1.4 3.5-.7 2-2a109.3 109.3 0 0 0-28.4-21.5 54.2 54.2 0 0 0-17.4-6c-6-.7-11.4.4-17 1.8-7 2-14.6 4-21.7.6-4.2-2-7.6-4.5-12.5-3.2-5.2 1.4-10.2 5-14.7 7.7a155.7 155.7 0 0 0-15.7 11.2c-1.5 1.2.6 3.3 2 2z" id="_21" data-name="21"/>
    <path class="cls-5" d="M598.8 500.4c10.5 2.6 20-2.4 28.8-7.7 12-7 24.6-9.6 38.4-11.2a80.8 80.8 0 0 1 36.3 4c11 3.7 21.8 8.5 33.4 10.5 2 .3 2.7-2.6.8-3-11.3-1.8-21.8-6.4-32.6-10.2-11.3-3.8-22.4-5.7-34.3-4.7-11 1-23.3 2.5-33.6 7-11.7 5-22.6 16-36.4 12.5-2-.5-2.7 2.4-.8 3z" id="_20" data-name="20"/>
    <path class="cls-5" d="M609 501c11.2-.6 21 6 31 10 9 4 18.6 7 28.5 7.8 10.6.7 20-2.4 29.8-6.2l33-12.6c1.7-.7 1-3.6-1-3l-31 12c-10.6 4.2-21 8-32.6 6.7-11.2-1-21.8-5.3-32-10-8-4-16.4-8.2-25.8-7.6-2 .3-2 3.3 0 3z" id="_19" data-name="19"/>
    <path class="cls-5" d="M642.3 510.3c4.3-1 11.8-2.6 13 3.6.2 1.8 3 1 2.8-1-1.3-8-10.7-7-16.5-5.6a1.5 1.5 0 0 0 .8 3z" id="_18" data-name="18"/>
    <path class="cls-5" d="M657 511c4-.4 12-1.2 12.3 5 0 2 3 2 3 0-.2-8-9.3-8.7-15.4-8-2 .4-2 3.4 0 3z" id="_17" data-name="17"/>
    <path class="cls-5" d="M668.4 511c4.5-2.3 15.4-6.6 16.4 2 .2 2 3.2 2 3 0a9 9 0 0 0-7-7.8c-5-1.2-9.7 1-14 3-1.6 1 0 3.6 1.6 2.7z" id="_16" data-name="16"/>
    <path class="cls-5" d="M685.3 508.4c5-1 10-1.8 14.4 1.4 1.6 1 3-1.5 1.5-2.6-5-3.6-11-2.8-16.7-1.6-2 .3-1 3.2.8 2.8z" id="_15" data-name="15"/>
    <path class="cls-5" d="M699 507.8a17 17 0 0 0 6-4c.7-.7 1-1.7 1.5-2.3 1.2-1.5 4 0 5.2.7a1.5 1.5 0 0 0 1.6-2.6c-2.2-1.2-6.2-3-8.5-1-1 .8-1.2 2.4-2 3.4a15.3 15.3 0 0 1-5.2 3.2c-1.8.8-.3 3.4 1.5 2.6z" id="_14" data-name="14"/>
    <path class="cls-5" d="M735.5 512.7a86.6 86.6 0 0 1-61 33.5c-22 1.8-50.5-4.4-61.2-26-.8-1.8-3.4-.2-2.5 1.5 10.8 22 39.4 29 62 27.6a89.4 89.4 0 0 0 64.8-34.4c1.2-1.6-1-3.8-2-2.2z" id="_13" data-name="13"/>
    <path class="cls-5" d="M672.7 567c9.4-.6 19.5-1.2 27.3 5.2 1.5 1.2 3.6-1 2-2-8.3-7-19-7-29.3-6-2 0-2 3 0 3z" id="_12" data-name="12"/>
    <path class="cls-5" d="M850.7 303a417.3 417.3 0 0 1-24 176 409.4 409.4 0 0 1-40.2 81.3c-16 24.8-35.3 48.8-62.3 62.2A119.3 119.3 0 0 1 630 627c-1.8-.7-2.6 2.2-.8 3a122 122 0 0 0 83 .8c27.6-9.7 49-29.6 66-53 36.6-50 60.4-110 70.8-171a416.6 416.6 0 0 0 4.7-104c-.2-2-3.2-2-3 0z" id="_11" data-name="11"/>
    <path class="cls-5" d="M617 620c-17.6-15-31.3-34-44.8-52.7s-27.3-38-37.7-59c-21.8-44-24-94.2-29-142l-9-86c0-1.8-3-1.8-3 0l8.3 79c2.5 24.2 4.6 48.5 8 72.7 3.3 23.8 8.5 47.5 18.3 69.6 9.7 21.7 23 41.3 36.8 60.5 15.2 21.4 30.2 43.2 50.2 60.3 1.4 1.2 3.6-1 2-2.2z" id="_10" data-name="10"/>
    <path class="cls-5" d="M499 273a190.6 190.6 0 0 1 14.5-132.7c20.3-40 55.2-71 96.7-87.8a184.8 184.8 0 0 1 127-4.3c42 14 79.3 42.7 102 81a190.7 190.7 0 0 1 20 146.7 1.5 1.5 0 0 0 3 .7c12.3-44.4 7.6-92.8-12.3-134.3-20-41.2-55-73.6-97-91.4a187.6 187.6 0 0 0-130.4-6c-42.6 13.6-80.3 42-104 80A193.7 193.7 0 0 0 496 273.6c.5 2 3.4 1 3-.8z" id="_9" data-name="9"/>
    <path class="cls-5" d="M497 332.5c-7.3 17-12 35.7-12.3 54.3-.2 13 6.3 30.5 22.6 27.7 1.8-.3 1-3.2-1-2.8-8.4 1.4-15-5.5-17.3-13-2-6.6-1.4-13.8-.8-20.6a146.7 146.7 0 0 1 11.4-44c.7-1.6-2-3.2-2.6-1.4z" id="_8" data-name="8"/>
    <path class="cls-5" d="M496 354a23 23 0 0 0 1.7 18c1 1.7 3.4.2 2.6-1.5a20 20 0 0 1-1.3-15.7c.6-1.8-2.3-2.6-3-.8z" id="_7" data-name="7"/>
    <path class="cls-5" d="M490 374.4a16.2 16.2 0 0 1 0 15.5c-1 1.6 1.7 3 2.6 1.4a19.4 19.4 0 0 0 0-18.5c-1-1.8-3.6-.3-2.7 1.4z" id="_6" data-name="6"/>
    <path class="cls-5" d="M865.6 286.3c5.3-3.6 6 3.6 5.8 6a20.8 20.8 0 0 1-1.2 4.7 60.4 60.4 0 0 0-2.2 8.8 64 64 0 0 0-.2 17c1.4 12 5.2 23.2 8 35 3.2 12.3 5.6 25.7 2 38.3-1.6 6-4.7 12-10.3 15-5.2 3-12.4 1.8-15.6-3.6a1.5 1.5 0 0 0-2.7 1.5c6 10.2 19.8 7.2 26-1 9.5-12.2 8-29.7 5.2-43.8-3.7-18-11.6-35.7-10-54.4.4-4.8 1.8-9 3-13.8.8-2.7 1.5-5.6.5-8.4-1.4-4.3-6-6.6-10-4-1.6 1 0 3.7 1.5 2.7z" id="_5" data-name="5"/>
    <path class="cls-5" d="M856 330.2c4.3 4.7 8.8 9.7 10.3 16a22.4 22.4 0 0 1-4 18.2c-1 1.6 1.6 3 2.7 1.5a25 25 0 0 0 4.5-19c-1.4-7.6-6.4-13.4-11.3-19-1.3-1.4-3.4.8-2 2.2z" id="_4" data-name="4"/>
    <path class="cls-5" d="M866.7 312.7a5 5 0 0 1 .3-2.7 1.5 1.5 0 0 0-.5-2 1.5 1.5 0 0 0-2 .5 8 8 0 0 0-.8 4.2 1.5 1.5 0 0 0 1.5 1.5 1.5 1.5 0 0 0 1.5-1.5z" id="_3" data-name="3"/>
    <path class="cls-5" d="M661 427a34.4 34.4 0 0 1-2.4 9.8c-.7 1.8-2.5 4-2.5 6 0 3.7 7 4.7 9.3 5.6 1.8.7 2.6-2.2.8-2.8s-4.7-1.2-5.8-3c-1-1.5.6-3 1.2-4.8a38.5 38.5 0 0 0 2.5-11c0-2-3-1.8-3 0z" id="_2" data-name="2"/>
    <path class="cls-5" d="M748.8 351.2a76.2 76.2 0 0 1-29.5-19c-3.5-3.6-6.6-7.7-10.7-11-3-2.3-6.8-3.8-7-8s3-7.5 6-10.2c1.4-1.3-.7-3.5-2-2-4 3.6-8.7 8.6-7 14.6.8 2.4 2.6 4 4.5 5.4a69 69 0 0 1 10 8.7c9.8 11 21 19.3 35 24.3 1.8.7 2.6-2.2.8-3z" id="_1" data-name="1"/>
  </g>
</svg>
