<svg xmlns="http://www.w3.org/2000/svg" xmlns:xlink="http://www.w3.org/1999/xlink" viewBox="0 0 768 768">
  <defs>
    <style>
      .cls-1 {
        fill: none;
      }

      .cls-2 {
        clip-path: url(#clip-path);
      }

      .cls-3 {
        clip-path: url(#clip-path-2);
      }

      .cls-4 {
        fill: #fff;
      }
    </style>
    <clipPath id="clip-path">
      <polygon class="cls-1" points="35.56 228.76 660.3 58.23 463.66 738.49 35.56 228.76"/>
    </clipPath>
    <clipPath id="clip-path-2">
      <rect class="cls-1" width="769" height="769"/>
    </clipPath>
  </defs>
  <title>halloween-cropped</title>
  <g id="imageclip">
    <g class="cls-2">
      <g id="AI_Image.psd">
        <g class="cls-3">
          <image id="AI_Image" width="769" height="769" xlink:href="halloween-cropped1.png"/>
        </g>
      </g>
    </g>
  </g>
  <g id="traces">
    <g id="_47" data-name="47">
      <path class="cls-4" d="M452.89,324.71a45.47,45.47,0,0,1-7.79,19.07c-1.11,1.58,1.49,3.08,2.59,1.51a47.47,47.47,0,0,0,8.09-19.78c.31-1.89-2.58-2.7-2.89-.8Z"/>
    </g>
    <g id="_46" data-name="46">
      <path class="cls-4" d="M512.77,413.35a49.22,49.22,0,0,0-.7-9.52c-.61-3.46-3-12.31,3.55-11.47,1.91.24,1.89-2.76,0-3-4-.51-6.78,2.42-7.42,6.18a17.19,17.19,0,0,0,.41,6.25,53.94,53.94,0,0,1,1.16,11.57c0,1.93,3,1.93,3,0Z"/>
    </g>
    <g id="_45" data-name="45">
      <path class="cls-4" d="M510.21,384.17c-.89-7-1.9-14.45.56-21.26a19.61,19.61,0,0,1,2.48-4.81l1.61-1.91q2.09-3.13,5.37-.72,4.19-.48,3.77,3.22a17.27,17.27,0,0,1-.4,3.7c-.16,1.05-.43,2.08-.58,3.14-.86,6.13,1.92,10.19,4.59,15.45,3.51,6.93,2,14.39,2.85,21.8.79,6.55,3.95,12.53,4.66,19.1.75,6.91-.76,13.93-1.24,20.81A158,158,0,0,0,536.73,485c.38,1.89,3.27,1.09,2.89-.8a155.79,155.79,0,0,1-3.14-29.39c-.08-8.69,1.15-17.18,1.67-25.83.49-8.12-2.09-14.74-4-22.47-2-8.11.28-16.83-2.88-24.69-1.41-3.5-3.94-6.55-5-10.18-1.34-4.46.9-8.58.71-13s-3.07-8.9-8.09-8.14-8.68,5.86-10.5,10.2c-3.12,7.45-2.18,15.63-1.19,23.42.24,1.89,3.24,1.91,3,0Z"/>
    </g>
    <g id="_44" data-name="44">
      <path class="cls-4" d="M550.31,516.52a294,294,0,0,0,64.23,106.08c1.33,1.41,3.45-.72,2.12-2.12A290.42,290.42,0,0,1,553.2,515.72c-.63-1.81-3.52-1-2.89.8Z"/>
    </g>
    <g id="_43" data-name="43">
      <path class="cls-4" d="M453.12,403.87Q436.48,386,420.41,367.55c-2.78-3.19-5.61-6.35-8.31-9.61-1.35-1.62-4.19-4.53-4.32-6.85l1.78-5.41a7,7,0,0,1,5.1-.43c6.66,1.58,13.52,6.86,19.32,10.37a332.1,332.1,0,0,1,68.72,55.54c1.33,1.4,3.45-.72,2.12-2.12-24.29-25.61-52.84-48.2-84.23-64.52-4.45-2.31-10.94-4.42-14.66.39-3.9,5,.76,11.24,4,15.14C423.21,375.74,437,391,451,406c1.32,1.42,3.43-.71,2.12-2.12Z"/>
    </g>
    <g id="_42" data-name="42">
      <path class="cls-4" d="M483.46,388.13a85.53,85.53,0,0,1,16.49,12c1.41,1.31,3.54-.8,2.12-2.12A88.83,88.83,0,0,0,485,385.54c-1.69-.95-3.2,1.64-1.51,2.59Z"/>
    </g>
    <g id="_41" data-name="41">
      <path class="cls-4" d="M418.61,373.55c-4.63-4-9.4-7.86-14.34-11.48-4.39-3.22-9.23-7.36-14.49-9-7.77-2.43-13.51,4.65-12.75,12.06.46,4.53,3.21,8.42,6.08,11.8,4.18,4.92,8.73,9.56,13.1,14.31l29,31.46c1.31,1.42,3.43-.7,2.12-2.12-13.51-14.67-27.25-29.16-40.55-44-3.22-3.6-7-8-6.82-13.11.24-7.28,6.56-9.15,12.51-5.82,8.64,4.84,16.6,11.59,24,18.06,1.45,1.26,3.58-.85,2.12-2.12Z"/>
    </g>
    <g id="_40" data-name="40">
      <path class="cls-4" d="M383.18,386.73c-5.92,11.26,5.56,24.38,11.65,33.2,7.32,10.61,16,20.36,27.85,25.92,1.74.82,3.26-1.77,1.51-2.59-10.4-4.89-18.31-13.07-25-22.28-3.06-4.24-5.88-8.65-8.64-13.09-3.61-5.81-8.48-12.69-4.82-19.65.9-1.71-1.69-3.23-2.59-1.51Z"/>
    </g>
    <g id="_39" data-name="39">
      <path class="cls-4" d="M403.72,444.15c1.64,11.35,10.88,20.3,17.51,29.07q12,15.82,23.09,32.25a768,768,0,0,1,41,67.88c.91,1.7,3.5.19,2.59-1.51a769.61,769.61,0,0,0-39.95-66.35Q437.38,489.8,426,474.66c-7-9.38-17.69-19.26-19.43-31.31-.27-1.9-3.17-1.09-2.89.8Z"/>
    </g>
    <g id="_38" data-name="38">
      <path class="cls-4" d="M540.87,289.3c-5.52-8.1-11.07-13.6-21.36-13.77-6.39-.1-12.8.18-19.18.28-4.55.07-9.12-.14-13,2.6a1.51,1.51,0,0,0,.76,2.8l13.45.67c1.93.1,1.92-2.9,0-3l-13.45-.67.76,2.8c3.63-2.59,8.18-2.14,12.43-2.21l14.54-.24c5.06-.08,10.09-.16,14.38,2.94,3.38,2.44,5.75,5.91,8.06,9.32,1.08,1.59,3.68.09,2.59-1.51Z"/>
    </g>
    <g id="_37" data-name="37">
      <path class="cls-4" d="M396.81,289.38c12.08-17.05,35.11-11.92,51.87-6.65l.8-2.89a29,29,0,0,0-16.17.83c-1.82.62-1,3.52.8,2.89a25.71,25.71,0,0,1,14.58-.83,1.5,1.5,0,0,0,.8-2.89c-18.3-5.76-42.31-10.26-55.26,8-1.12,1.58,1.48,3.08,2.59,1.51Z"/>
    </g>
    <g id="_36" data-name="36">
      <path class="cls-4" d="M133.4,379.56c-4.59,19.87,13,35.77,24.55,49.42l10.43,12.28c2.79,3.28,5.64,6.9,9.47,9,3.65,2,8.11,1.05,11.55,3,4.27,2.44,4.43,8.71,4.48,13.05a1.51,1.51,0,0,0,2.26,1.3l13.31-7.78-2.2-1.69c-2.61,19.14,17.95,27.19,33.33,29.49,8.62,1.28,17,.8,24.92-3,5.52-2.61,13.1-6.61,17.24.4,3.48,5.9.48,13-2,18.6a1.59,1.59,0,0,0,.23,1.82c5,5.78,13.33,5,19.27,1.09,4.2-2.77,7.44-6.74,10.93-10.3,3.9-4,8-7.74,12.12-11.51,14.56-13.39,29.71-28.76,30.48-49.77.07-1.93-2.93-1.93-3,0-.67,18.2-13.11,32.23-25.73,44.06-6.18,5.79-12.49,11.4-18.33,17.54-5.63,5.91-16,15.61-23.62,6.78l.23,1.82c3.11-7.12,6.35-15.63,1.3-22.69-4.72-6.6-12.22-4.48-18.44-1.51-10.87,5.19-21.47,5-33,2.11-11.32-2.83-24.9-10.42-23-24.17a1.52,1.52,0,0,0-2.2-1.69l-13.31,7.78,2.26,1.3c-.06-5.27-.58-12.18-5.4-15.45-3.27-2.22-7.39-1.25-10.92-2.69-5-2-8.53-7.3-11.9-11.26-6.87-8.09-13.83-16.11-20.6-24.27-7.55-9.11-14.63-20-11.77-32.34.43-1.88-2.46-2.68-2.89-.8Z"/>
    </g>
    <g id="_35" data-name="35">
      <path class="cls-4" d="M426.38,299.41l7.61.21-1.45-1.1c.72,4.54-8.66,3.83-11.26,4.76-1.81.64-1,3.54.8,2.89,3.3-1.18,7.1-.39,10.22-2.15a5.93,5.93,0,0,0,3.13-6.3,1.51,1.51,0,0,0-1.45-1.1l-7.61-.21c-1.93-.05-1.93,2.95,0,3Z"/>
    </g>
    <g id="_34" data-name="34">
      <path class="cls-4" d="M448.8,311l-10.44,10.4a1.5,1.5,0,0,0,2.12,2.12l10.44-10.4A1.5,1.5,0,0,0,448.8,311Z"/>
    </g>
    <g id="_33" data-name="33">
      <path class="cls-4" d="M475.34,350.63q1.83-2.16,4.1.39l-1.77.06a17,17,0,0,1-1.83.53c-1.87.8-3.7,3.77-5.51,4.13-3.34.67-5.72-1.92-7.47-4.13-.51-.65-1-1.32-1.54-1.92a8.61,8.61,0,0,0-4.86-2.94c-7.48-1.09-7.49,10-.74,8.16a1.5,1.5,0,0,0-.8-2.89c4.46-1.24,3.94-.54,6.16,2.24a21.07,21.07,0,0,0,2.5,2.91,7.49,7.49,0,0,0,4.75,2.09,7.31,7.31,0,0,0,4.75-1.79c1.11-.82,2.06-2.11,3.29-2.72,1.65-.82,3.53-.47,5.25-.69,2.91-.37,5.29-2.77,3.72-5.77-2.24-4.29-8.58-2.33-11.51-.23-1.56,1.11-.06,3.72,1.51,2.59Z"/>
    </g>
    <g id="_32" data-name="32">
      <path class="cls-4" d="M449.33,303.5a41.65,41.65,0,0,0-9.18-9.06c-3.74-2.59-7.34-2.77-11.78-2.38-8.91.78-17.77,2.94-23.89,9.89a1.52,1.52,0,0,0,.66,2.51c3.28,1.08,5.25,3.88,8.17,5.51a14,14,0,0,0,7.83,1.52c7-.36,14-2.6,20.38-5.48,1.76-.79.23-3.38-1.51-2.59-6.19,2.79-13.52,5.26-20.39,5.12-5.7-.11-8.6-5.29-13.69-7l.66,2.51c5.19-5.88,12.51-8,20.08-8.84,4-.45,7.82-.83,11.41,1.42a34.86,34.86,0,0,1,8.65,8.37c1.16,1.51,3.77,0,2.59-1.51Z"/>
    </g>
    <g id="_31" data-name="31">
      <path class="cls-4" d="M531.23,303.87c-6.21-6.51-14.05-12.43-23.45-12.56a25,25,0,0,0-21,11.44,1.51,1.51,0,0,0,.54,2.05c10.09,5.45,23.45,11.16,33,1.54a1.5,1.5,0,0,0-2.12-2.12c-8.48,8.53-20.59,2.74-29.38-2l.54,2.05a21.84,21.84,0,0,1,19.87-9.89c8,.71,14.54,6,19.87,11.61,1.34,1.4,3.45-.72,2.12-2.12Z"/>
    </g>
    <g id="_30" data-name="30">
      <path class="cls-4" d="M504.27,303c1.25-2.38,4.4-.91,6.16-.06l-.54-2.05-1.7,2.52c-1.08,1.61,1.52,3.11,2.59,1.51l1.7-2.52a1.51,1.51,0,0,0-.54-2.05c-3.28-1.59-8.13-2.94-10.26,1.13-.9,1.71,1.69,3.23,2.59,1.51Z"/>
    </g>
    <g id="_29" data-name="29">
      <path class="cls-4" d="M422,176.75a27.5,27.5,0,0,0,9.68,36.7c1.63,1,3.14-1.56,1.51-2.59a24.47,24.47,0,0,1-8.6-32.6c.9-1.71-1.69-3.22-2.59-1.51Z"/>
    </g>
    <g id="_28" data-name="28">
      <path class="cls-4" d="M435.16,186.48a40.28,40.28,0,0,1,38.41,36.18c.2,1.9,3.2,1.92,3,0a43.36,43.36,0,0,0-41.41-39.18c-1.93-.09-1.93,2.91,0,3Z"/>
    </g>
    <g id="_27" data-name="27">
      <path class="cls-4" d="M435.2,176.35c40-4.92,81,16.12,100.13,51.61.92,1.7,3.51.19,2.59-1.51-19.63-36.32-61.72-58.14-102.72-53.1-1.89.23-1.91,3.24,0,3Z"/>
    </g>
    <g id="_26" data-name="26">
      <path class="cls-4" d="M432.8,168.93c2.72-9,6.91-17.88,14.35-23.88,7.87-6.35,19.26-8.16,28-2.52,1.63,1.05,3.13-1.54,1.51-2.59-8.82-5.72-20.27-4.67-28.9,1-9.42,6.16-14.65,16.76-17.83,27.22-.56,1.85,2.33,2.64,2.89.8Z"/>
    </g>
    <g id="_25" data-name="25">
      <path class="cls-4" d="M446.33,170c23.55-5.33,48.75-9.14,72.42-2.34,19.13,5.49,36.49,18,44.44,36.61.75,1.77,3.34.24,2.59-1.51-8-18.87-25.58-31.68-44.82-37.57-24.56-7.52-50.91-3.63-75.44,1.92-1.88.43-1.09,3.32.8,2.89Z"/>
    </g>
    <g id="_24" data-name="24">
      <path class="cls-4" d="M508.9,181.36c30.09,2.22,57.24,22.83,67.47,51.22.65,1.8,3.55,1,2.89-.8a82.1,82.1,0,0,0-70.36-53.42c-1.93-.14-1.92,2.86,0,3Z"/>
    </g>
    <g id="_23" data-name="23">
      <path class="cls-4" d="M543.71,243c11.56,9,12.55,27.19,14,40.62a264.08,264.08,0,0,1,.71,49.59c-.15,1.93,2.85,1.92,3,0a264.21,264.21,0,0,0-1.42-55.4c-1.7-12.81-3.26-28.37-14.2-36.94-1.5-1.18-3.64.93-2.12,2.12Z"/>
    </g>
    <g id="_22" data-name="22">
      <path class="cls-4" d="M566.41,317.88c-1.25-6.65,6.69-10.82,9.18-16.28,2.09-4.57,2.53-9.89,3.2-14.81a267.23,267.23,0,0,0,2.35-40.94c0-1.93-3-1.93-3,0a262.6,262.6,0,0,1-2.85,44.41,50.71,50.71,0,0,1-1.61,8c-1.26,3.89-3.86,6.32-6.44,9.33-2.81,3.29-4.54,6.69-3.72,11.07.36,1.9,3.25,1.09,2.89-.8Z"/>
    </g>
    <g id="_21" data-name="21">
      <path class="cls-4" d="M405.67,183.77c-10.75-1.55-23.16-2.7-31,6.34-4.13,4.73-6.67,10.89-9.18,16.57a198,198,0,0,0-7.68,20.42c-.58,1.85,2.31,2.63,2.89.8,3.46-11,7.53-22.33,13.58-32.15,6.94-11.26,19-10.76,30.64-9.08,1.89.27,2.7-2.62.8-2.89Z"/>
    </g>
    <g id="_20" data-name="20">
      <path class="cls-4" d="M381.65,219.28A37.48,37.48,0,0,0,362.85,250c-.1,1.93,2.9,1.92,3,0a34.4,34.4,0,0,1,17.31-28.14,1.5,1.5,0,0,0-1.51-2.59Z"/>
    </g>
    <g id="_19" data-name="19">
      <path class="cls-4" d="M408,210.88C395.92,224,383.52,238,379.61,256c-4,18.58-.1,38.73-8.94,56.19-.87,1.72,1.72,3.24,2.59,1.51,8.24-16.29,5.74-34.55,8.36-52,3-19.72,15.44-34.38,28.48-48.62,1.3-1.42-.81-3.55-2.12-2.12Z"/>
    </g>
    <g id="_18" data-name="18">
      <path class="cls-4" d="M569.2,316.64l4.41.66a7,7,0,0,1,1.79,3.09,19.25,19.25,0,0,1,1.07,4.19,84.8,84.8,0,0,1,.85,9.4,113.06,113.06,0,0,1-.51,17.55C576,359.21,573,388.37,559.5,381c-1.7-.92-3.21,1.67-1.51,2.59,17.27,9.4,20.76-22.11,21.82-32.1,1-9.51,1.27-19.84-.71-29.25-1.05-5-5.58-12-11.42-8.23-1.62,1-.11,3.64,1.51,2.59Z"/>
    </g>
    <g id="_17" data-name="17">
      <path class="cls-4" d="M567.72,324.28c7.06,6.17-.79,16.48,3,24.3.83,1.74,3.42.22,2.59-1.51-4-8.37,4.92-17.62-3.42-24.91-1.45-1.27-3.58.85-2.12,2.12Z"/>
    </g>
    <g id="_16" data-name="16">
      <path class="cls-4" d="M559.94,346.58a16.91,16.91,0,0,0,9.23,12.68l.36-2.74-5.2,1.93c-1.8.66-1,3.57.8,2.89l5.2-1.93c1.11-.41,1.61-2.12.36-2.74a14.17,14.17,0,0,1-7.86-10.89c-.28-1.9-3.17-1.09-2.89.8Z"/>
    </g>
    <g id="_15" data-name="15">
      <path class="cls-4" d="M563.61,375.45a1.14,1.14,0,0,1,.64-1.54c.93-.34,1.75.55,2.09,1.3.8,1.75,3.39.23,2.59-1.51a4.7,4.7,0,0,0-6.08-2.44A4.17,4.17,0,0,0,561,377c.94,1.69,3.53.18,2.59-1.51Z"/>
    </g>
    <g id="_14" data-name="14">
      <path class="cls-4" d="M293.28,296.19a42.17,42.17,0,0,1,16.87-12.47,15.6,15.6,0,0,1,12.64.53c1.66.77,8.85,4.17,9.14,6,.37,2.36-2.41,4.51-4.1,5.5a31.93,31.93,0,0,1-3.87,1.91,33.83,33.83,0,0,1-29.2-1.38c-1.7-.9-3.22,1.68-1.51,2.59a37.3,37.3,0,0,0,25.24,3.63c4.6-1,17.66-4.82,17.19-11.2-.26-3.54-5.24-6-7.82-7.63-3.6-2.26-7.65-4.12-12-4.14-9,0-19.4,7.72-24.71,14.55-1.17,1.51.94,3.65,2.12,2.12Z"/>
    </g>
    <g id="_13" data-name="13">
      <path class="cls-4" d="M201.14,305.26c7.51,2.74,11.26-4.57,15.38-9.28,7.52-8.58,19.75-6,29.26-2.79,2.55.85,7,2,7.59,5.36.76,4.48-4.56,5.74-7.32,6.77a114.86,114.86,0,0,1-14.24,4.47c-10,2.3-20.58,1.94-29.11-4.36-1.55-1.15-3.05,1.45-1.51,2.59,9.41,7,21.33,7.13,32.32,4.45,5.92-1.45,12.38-3.27,17.85-6,2.89-1.45,5.41-3.84,5.12-7.33-.33-4.06-3.76-6.52-7.24-7.9a56.46,56.46,0,0,0-16.59-4c-4.94-.34-10.22.51-14.42,3.27-5.2,3.4-8.94,14.58-16.29,11.9-1.82-.66-2.6,2.23-.8,2.89Z"/>
    </g>
    <g id="_12" data-name="12">
      <path class="cls-4" d="M196.23,324.73a46.73,46.73,0,0,0,50.95-9.46c1.38-1.36-.74-3.48-2.12-2.12a43.62,43.62,0,0,1-47.31,9c-1.76-.75-3.29,1.83-1.51,2.59Z"/>
    </g>
    <g id="_11" data-name="11">
      <path class="cls-4" d="M296.28,312.18c12.42,4.74,28.9,9.22,38.12-3.67,1.12-1.57-1.48-3.07-2.59-1.51-8.29,11.6-23.88,6.43-34.73,2.29-1.81-.69-2.59,2.21-.8,2.89Z"/>
    </g>
    <g id="_10" data-name="10">
      <path class="cls-4" d="M227.64,201.16a70.51,70.51,0,0,1,60.94-1.88c1.75.78,3.28-1.81,1.51-2.59a73.72,73.72,0,0,0-64,1.88c-1.71.89-.2,3.48,1.51,2.59Z"/>
    </g>
    <g id="_9" data-name="9">
      <path class="cls-4" d="M159.33,228.69c-.1-15.7,5.72-30.23,13.21-43.78,7.79-14.1,16.79-27.57,25.33-41.22,8.4-13.42,15.92-29.54,33.79-30.62,15.44-.93,28.79,8.39,39.69,18.28a235.52,235.52,0,0,1,35.22,40.38c1.09,1.58,3.69.08,2.59-1.51a241.72,241.72,0,0,0-33.23-38.72c-10.62-10-23-19.66-38-21.25-7-.74-14.28.28-20.43,3.77-6.46,3.66-10.75,9.85-14.64,16-9.95,15.69-20,31.35-29.49,47.34-9.29,15.73-17.21,32.72-17.08,51.36a1.5,1.5,0,0,0,3,0Z"/>
    </g>
    <g id="_8" data-name="8">
      <path class="cls-4" d="M541.42,450.32c1.23-21.1,2.8-43.1,14.77-61.24,1.07-1.62-1.53-3.12-2.59-1.51-12.25,18.57-13.92,41.15-15.18,62.76-.11,1.93,2.89,1.92,3,0Z"/>
    </g>
    <g id="_7" data-name="7">
      <path class="cls-4" d="M384.19,442.15C387,454.77,390,467.37,392.66,480c1.22,5.73,2.48,12.4-.27,17.89-2.59,5.17-10.14,8.84-14.81,4l-1.46,2.51c16.22,5.85,19.8,24.51,25.8,38.56,6.27,14.67,16,27.43,25.61,40,1.16,1.51,3.76,0,2.59-1.51-11.08-14.48-21.6-29-28-46.21-5-13.5-10.42-28.43-25.18-33.75-1.47-.53-2.45,1.49-1.46,2.51,3.28,3.37,7.83,3.83,12.09,2.12,5.66-2.27,8.6-7.31,9.28-13.2.88-7.68-1.68-15.6-3.34-23l-6.41-28.64c-.42-1.88-3.31-1.09-2.89.8Z"/>
    </g>
    <g id="_6" data-name="6">
      <path class="cls-4" d="M280.5,232.82c-3.1,4.59-11.26-5.62-15.76-5.51a7,7,0,0,0-4.33,1.68,19.48,19.48,0,0,0-2.51,2.63q-.59.73-1.2,1.45-1.47,2.2-4.49,1.21c.59-1.84-2.31-2.63-2.89-.8a3.72,3.72,0,0,0,3.42,5.11c3.83.2,5.73-3.56,8.09-5.8,6.17-5.85,9.3,2.24,14.57,4a6.39,6.39,0,0,0,7.69-2.45c1.08-1.6-1.51-3.11-2.59-1.51Z"/>
    </g>
    <g id="_5" data-name="5">
      <path class="cls-4" d="M237.69,243.74c-.14,6.68,3.71,9.86,9.35,12.43,8.94,4.07,9.65,13.29,13.14,21.41.76,1.77,3.35.24,2.59-1.51-2.55-5.93-3.45-12.84-7.73-17.92-4.76-5.63-14.54-5.23-14.34-14.41,0-1.93-3-1.93-3,0Z"/>
    </g>
    <g id="_4" data-name="4">
      <path class="cls-4" d="M149.07,368.32a91,91,0,0,0,22.16,35.36c9,8.87,22.33,19.69,35.9,16.69,7.2-1.59,13.11-6.42,19.35-10A83.53,83.53,0,0,1,251.23,401c18-3.82,36.74-2.3,54.67,1.41,15,3.1,33,10.77,47.26,1.42,1.61-1.06.11-3.65-1.51-2.59-13.15,8.64-30.15,1.4-44-1.53-15.21-3.21-30.92-5-46.44-3.3a91.63,91.63,0,0,0-39,13c-6.62,4.14-13.43,9.14-21.65,8.34-8-.78-15.28-6-21.37-11A87.38,87.38,0,0,1,152,367.52c-.63-1.81-3.52-1-2.89.8Z"/>
    </g>
    <g id="_3" data-name="3">
      <path class="cls-4" d="M150.24,320.64A21,21,0,0,1,149,303.81a1.54,1.54,0,0,0-.69-1.69c-2.61-2-5.86-4.11-9.27-2.82s-5.46,5.37-6.52,8.71c-3.23,10.18-1.15,21.91,1.73,31.91a120.92,120.92,0,0,0,5.36,15.69c.94,2.11,2.38,4.06,4.91,3.28,3.43-1.06,4.19-7,4.92-9.8a79.29,79.29,0,0,0,2.37-17.87c0-1.93-3-1.93-3,0a77.19,77.19,0,0,1-1.08,11.62c-.51,2.92-.9,7.35-2.47,9.91l-2.64,2.32q-.62-1.57-1.19-3.16-.78-2.11-1.52-4.24c-1.09-3.11-2.12-6.25-3-9.42a67.65,67.65,0,0,1-2.86-20,34.32,34.32,0,0,1,1.37-9.43c.42-1.32,1.79-5,3.2-5.73,2.5-1.36,6.19.11,8.19,1.63L146.1,303a23.91,23.91,0,0,0,1.55,19.14c.89,1.71,3.48.2,2.59-1.51Z"/>
    </g>
    <g id="_2" data-name="2">
      <path class="cls-4" d="M130.23,273.9c3.3-9.52,10.82-16.21,17.85-23A163.21,163.21,0,0,0,166.72,229c11.79-16.35,21.48-34.21,34.57-49.61,12.83-15.09,29.35-27.87,49.56-30.32,9.73-1.18,19.89.1,28.56,4.85,9.42,5.15,16.15,13.82,22.46,22.27q22.28,29.81,42.34,61.2c1,1.62,3.64.12,2.59-1.51Q327,204.94,305,175.43c-5.86-7.86-11.88-15.83-20-21.53a47,47,0,0,0-25.61-8.21c-44.09-1.45-68.1,41.49-89.33,73.15-7,10.47-14.56,20.52-23.6,29.36-7.61,7.44-15.61,14.57-19.19,24.91-.63,1.83,2.26,2.61,2.89.8Z"/>
    </g>
    <g id="_1" data-name="1">
      <path class="cls-4" d="M125.8,291.95c-3.83,20.31-6.31,43.35-1.09,63.66,1.73,6.75,5.8,13.75,12.92,15.82a12,12,0,0,0,14.63-6.94c.73-1.78-2.17-2.56-2.89-.8-3.91,9.5-15.24,4.36-19.06-2-4-6.67-4.35-15.54-4.84-23.08a183,183,0,0,1,3.24-45.84c.36-1.89-2.53-2.7-2.89-.8Z"/>
    </g>
  </g>
</svg>
