<svg xmlns="http://www.w3.org/2000/svg" xmlns:xlink="http://www.w3.org/1999/xlink" viewBox="0 0 1266.87 1080">
  <defs>
    <style>
      .cls-1{fill:none;}.cls-2{clip-path:url(#clip-path);}.cls-3{opacity:0.2;}.cls-4{fill:#fff;}
    </style>
    <clipPath id="clip-path" transform="translate(316.9 114.47)">
      <path class="cls-1" d="M35.6 228.8L660.3 58.2 463.7 738.5l-428-509.7z"/>
    </clipPath>
  </defs>
  <title>
    halloween
  </title>
  <g class="cls-2" id="imageclip">
    <image width="1080" height="1080" transform="translate(186.87)" xlink:href="halloween-2.jpg"/>
    <path class="cls-3" d="M0 118.6h1130.6v774H0z"/>
  </g>
  <g id="traces">
    <path class="cls-4" d="M769.8 439.2a45.5 45.5 0 0 1-7.8 19c-1 1.6 1.5 3 2.6 1.6a47.5 47.5 0 0 0 8-19.8c.4-2-2.5-2.7-2.8-.8z" id="_47" data-name="47"/>
    <path class="cls-4" d="M829.7 527.8a49.2 49.2 0 0 0-.7-9.5c-.6-3.5-3-12.3 3.5-11.5 2 .3 2-2.7 0-3-4-.5-6.8 2.5-7.4 6.2a17.2 17.2 0 0 0 .5 6.3 54 54 0 0 1 1.2 11.5c0 2 3 2 3 0z" id="_46" data-name="46"/>
    <path class="cls-4" d="M827 498.6c-.8-7-1.8-14.4.7-21.2a19.6 19.6 0 0 1 2.4-4.8l1.8-2q2-3 5.3-.7 4.3-.5 4 3.2a17.3 17.3 0 0 1-.5 3.7l-.6 3c-1 6 1.8 10.2 4.5 15.4 3.5 7 2 14.4 3 21.8.6 6.6 3.8 12.6 4.5 19 .8 7-.7 14-1.2 21a158 158 0 0 0 2.8 42.3c.4 2 3.3 1 3-.8a155.8 155.8 0 0 1-3.2-29.4c0-8.7 1-17.2 1.6-26 .5-8-2-14.6-4-22.3-2-8 .3-17-2.8-24.7-1.4-3.5-4-6.6-5-10.2-1.4-4.4 1-8.5.7-13s-3.2-8.8-8.2-8-8.7 5.8-10.5 10.2c-3 7.4-2.2 15.6-1.2 23.4.3 2 3.3 2 3 0z" id="_45" data-name="45"/>
    <path class="cls-4" d="M867.2 631a294 294 0 0 0 64.2 106c1.4 1.5 3.5-.6 2.2-2A290.4 290.4 0 0 1 870 630.2c-.5-1.8-3.4-1-2.8.8z" id="_44" data-name="44"/>
    <path class="cls-4" d="M770 518.3q-16.6-17.8-32.7-36.3c-2.8-3.2-5.6-6.3-8.3-9.6-1.4-1.6-4.2-4.5-4.3-6.8l1.8-5.5a7 7 0 0 1 5-.3c6.7 1.6 13.6 7 19.4 10.4a332 332 0 0 1 68.6 55.6c1.3 1.4 3.5-.7 2-2-24.2-25.7-52.7-48.3-84-64.6-4.6-2.3-11-4.4-14.8.4-4 5 .8 11.2 4 15 13.3 15.8 27 31 41 46 1.4 1.5 3.5-.6 2.2-2z" id="_43" data-name="43"/>
    <path class="cls-4" d="M800.4 502.6a85.5 85.5 0 0 1 16.4 12c1.5 1.3 3.6-.8 2.2-2a88.8 88.8 0 0 0-17-12.6c-1.8-1-3.3 1.7-1.6 2.6z" id="_42" data-name="42"/>
    <path class="cls-4" d="M735.5 488c-4.6-4-9.4-7.8-14.3-11.5-4.4-3.2-9.3-7.3-14.5-9-7.8-2.4-13.5 4.7-12.8 12 .4 4.6 3 8.5 6 12 4.2 4.8 8.7 9.5 13 14.2l29 31.5c1.4 1.4 3.5-.7 2.2-2.2-13.5-14.6-27.2-29-40.5-44-3.2-3.6-7-8-6.8-13 0-7.3 6.4-9.2 12.4-6 8.6 5 16.6 11.7 24 18.2 1.4 1.2 3.6-1 2-2z" id="_41" data-name="41"/>
    <path class="cls-4" d="M700 501.2c-5.8 11.3 5.6 24.4 11.7 33.2 7.3 10.6 16 20.4 28 26 1.6.7 3-1.8 1.4-2.7-10.3-5-18.2-13-25-22.3-3-4.2-5.8-8.6-8.6-13-3.6-5.8-8.4-12.7-4.8-19.7 1-1.7-1.7-3.2-2.6-1.5z" id="_40" data-name="40"/>
    <path class="cls-4" d="M720.6 558.6c1.7 11.4 11 20.3 17.5 29q12 16 23.2 32.3a768 768 0 0 1 41 67.8c1 1.7 3.5.2 2.6-1.5a769.6 769.6 0 0 0-40-66.3q-10.5-15.7-22-31c-7-9.2-17.6-19-19.3-31.2-.3-2-3.2-1-3 .8z" id="_39" data-name="39"/>
    <path class="cls-4" d="M857.8 403.8c-5.5-8-11-13.6-21.4-13.8l-19.2.3c-4.5 0-9-.2-13 2.6a1.5 1.5 0 0 0 .8 2.7l13.4.7c2 0 2-3 0-3l-13.4-.7.8 2.8c3.6-2.6 8-2.2 12.4-2.2l14.5-.3c5 0 10 0 14.4 3 3.5 2.4 5.8 6 8.2 9.3 1 1.6 3.6 0 2.5-1.5z" id="_38" data-name="38"/>
    <path class="cls-4" d="M713.7 404c12-17.2 35-12 52-6.8l.7-3a29 29 0 0 0-16.2 1c-1.8.6-1 3.5.8 2.8a25.7 25.7 0 0 1 14.6-.8 1.5 1.5 0 0 0 .8-3c-18.3-5.6-42.3-10-55.3 8-1 1.7 1.6 3.2 2.7 1.6z" id="_37" data-name="37"/>
    <path class="cls-4" d="M450.3 494c-4.6 20 13 35.8 24.5 49.4l10.5 12.3c2.8 3.3 5.6 7 9.4 9 3.7 2 8.2 1 11.6 3 4.3 2.5 4.4 8.7 4.5 13a1.5 1.5 0 0 0 2.2 1.4l13.4-7.7-2.2-1.7c-2.7 19 18 27.2 33.3 29.5 8.6 1.4 17 1 25-3 5.4-2.5 13-6.5 17 .5 3.6 6 .6 13-2 18.6a1.6 1.6 0 0 0 .4 2c5 5.7 13.2 5 19 1 4.3-2.8 7.6-6.7 11-10.3 4-4 8-7.7 12.2-11.5 14.5-13.4 29.7-28.8 30.5-49.8 0-2-3-2-3 0-.7 18.2-13 32.3-25.8 44-6.2 6-12.6 11.5-18.4 17.6-5.6 6-16 15.6-23.6 6.8l.2 1.8c3-7 6.4-15.6 1.3-22.7-4.7-6.7-12.2-4.5-18.4-1.6-10.8 5.2-21.4 5-33 2-11.2-2.7-24.8-10.3-23-24a1.5 1.5 0 0 0-2-1.7l-13.4 7.8 2.2 1.3c0-5.3-.6-12.2-5.4-15.5-3.2-2.2-7.4-1.2-11-2.7-5-2-8.4-7.3-11.8-11.2-7-8-13.8-16.2-20.6-24.3-7.5-9-14.6-20-11.8-32.3.5-1.8-2.4-2.6-3-.8z" id="_36" data-name="36"/>
    <path class="cls-4" d="M743.3 414h7.6l-1.6-1c.8 4.5-8.6 3.8-11.2 4.7-1.8.7-1 3.6.8 3 3.3-1.2 7-.5 10.2-2.2a6 6 0 0 0 3-6.3 1.5 1.5 0 0 0-1.3-1l-7.7-.3c-2-.2-2 2.8 0 3z" id="_35" data-name="35"/>
    <path class="cls-4" d="M765.7 425.5L755.3 436a1.5 1.5 0 0 0 2 2l10.5-10.4a1.5 1.5 0 0 0-2-2z" id="_34" data-name="34"/>
    <path class="cls-4" d="M792.2 465q2-2 4 .5h-1.6a17 17 0 0 1-2 .6c-1.7 1-3.6 3.8-5.4 4.2-3.3.7-5.7-2-7.4-4-.5-.8-1-1.4-1.6-2a8.6 8.6 0 0 0-4.8-3c-7.5-1-7.5 10-.8 8.2a1.5 1.5 0 0 0-.8-3c4.5-1 4-.4 6.2 2.3a21 21 0 0 0 2.5 3 7.5 7.5 0 0 0 4.7 2 7.3 7.3 0 0 0 4.8-1.8c1-1 2-2.2 3.3-2.8 1.6-.8 3.5-.5 5.2-.7 3-.3 5.3-2.7 3.7-5.7-2.2-4.3-8.5-2.4-11.5-.3-1.5 1 0 3.7 1.5 2.6z" id="_33" data-name="33"/>
    <path class="cls-4" d="M766.2 418a41.6 41.6 0 0 0-9.2-9c-3.7-2.7-7.3-3-11.7-2.5-9 .8-17.8 3-24 10a1.5 1.5 0 0 0 .7 2.4c3.3 1 5.3 3.8 8.2 5.4a14 14 0 0 0 7.8 1.6c7-.4 14-2.6 20.4-5.5 1.8-.8.3-3.4-1.5-2.6-6.3 2.7-13.6 5-20.5 5-5.7 0-8.6-5.3-13.7-7l.7 2.5c5.2-6 12.5-8 20-8.8 4-.5 8-.8 11.5 1.4a35 35 0 0 1 8.6 8.5c1.2 1.5 3.8 0 2.6-1.5z" id="_32" data-name="32"/>
    <path class="cls-4" d="M848 418.3c-6-6.5-14-12.4-23.3-12.5a25 25 0 0 0-21 11.4 1.5 1.5 0 0 0 .5 2c10 5.5 23.5 11.2 33 1.6a1.5 1.5 0 0 0-2-2c-8.6 8.4-20.7 2.6-29.5-2l.6 2a21.8 21.8 0 0 1 19.8-10c8 .8 14.7 6 20 11.7 1.3 1.4 3.4-.8 2-2.2z" id="_31" data-name="31"/>
    <path class="cls-4" d="M821.2 417.5c1.2-2.4 4.4-1 6 0l-.4-2-1.7 2.4c-1 1.5 1.6 3 2.7 1.4l1.7-2.5a1.5 1.5 0 0 0-.6-2.2c-3.2-1.6-8-3-10.2 1-1 2 1.7 3.4 2.6 1.7z" id="_30" data-name="30"/>
    <path class="cls-4" d="M739 291.2a27.5 27.5 0 0 0 9.6 36.7c1.6 1 3-1.6 1.5-2.7a24.5 24.5 0 0 1-8.5-32.6c1-1.7-1.7-3.2-2.6-1.5z" id="_29" data-name="29"/>
    <path class="cls-4" d="M752 301a40.3 40.3 0 0 1 38.5 36c.2 2 3.2 2 3 0a43.4 43.4 0 0 0-41.4-39c-2 0-2 3 0 3z" id="_28" data-name="28"/>
    <path class="cls-4" d="M752 290.8c40-5 81 16 100.2 51.6 1 1.7 3.5.2 2.6-1.5-19.6-36.4-61.7-58.2-102.7-53.2-1.8.2-1.8 3.3 0 3z" id="_27" data-name="27"/>
    <path class="cls-4" d="M749.7 283.4c2.7-9 7-18 14.3-24 8-6.2 19.3-8 28-2.4 1.7 1 3.2-1.5 1.6-2.6-9-5.7-20.3-4.7-29 1-9.4 6.2-14.6 16.8-17.8 27.2-.5 2 2.4 2.7 3 .8z" id="_26" data-name="26"/>
    <path class="cls-4" d="M763.2 284.5c23.6-5.4 48.8-9.2 72.4-2.4 19.2 5.6 36.5 18 44.5 36.7.8 1.8 3.4.3 2.7-1.5-8-18.8-25.6-31.6-44.8-37.5-24.7-7.6-51-3.7-75.6 2-2 .3-1 3.2.8 2.8z" id="_25" data-name="25"/>
    <path class="cls-4" d="M825.8 295.8c30 2.3 57.2 23 67.5 51.3.6 2 3.5 1 3-.7a82 82 0 0 0-70.5-53.5c-2 0-2 3 0 3z" id="_24" data-name="24"/>
    <path class="cls-4" d="M860.6 357.5c11.6 9 12.6 27.2 14 40.6a264 264 0 0 1 .7 49.7c0 2 3 2 3 0a264.2 264.2 0 0 0-1.4-55.4c-1.8-12.8-3.4-28.4-14.3-37-1.5-1-3.6 1-2 2.2z" id="_23" data-name="23"/>
    <path class="cls-4" d="M883.3 432.4c-1.2-6.7 6.7-11 9.2-16.3 2-4.5 2.5-9.8 3.2-14.7a267.2 267.2 0 0 0 2.3-41c0-2-3-2-3 0a262.6 262.6 0 0 1-2.8 44.4 50.7 50.7 0 0 1-1.6 8c-1.3 4-4 6.4-6.5 9.4-2.7 3.4-4.4 6.8-3.6 11 .4 2 3.3 1.2 3-.7z" id="_22" data-name="22"/>
    <path class="cls-4" d="M722.6 298.2c-10.8-1.5-23.2-2.7-31 6.4-4.2 4.7-6.7 11-9.2 16.5a198 198 0 0 0-7.7 20.6c-.6 1.8 2.3 2.6 3 .8 3.4-11 7.4-22.4 13.5-32.2 7-11.2 19-10.7 30.6-9 2 .2 2.7-2.7.8-3z" id="_21" data-name="21"/>
    <path class="cls-4" d="M698.5 333.8a37.5 37.5 0 0 0-18.8 30.7c0 2 3 2 3 0a34.4 34.4 0 0 1 17.4-28.2 1.5 1.5 0 0 0-1.5-2.6z" id="_20" data-name="20"/>
    <path class="cls-4" d="M725 325.4c-12.2 13-24.6 27-28.5 45-4 18.7 0 38.8-9 56.3-.8 1.7 1.8 3.2 2.7 1.5 8.2-16.3 5.7-34.6 8.3-52 3-19.7 15.5-34.4 28.5-48.6 1.3-1.5-.8-3.6-2-2.2z" id="_19" data-name="19"/>
    <path class="cls-4" d="M886 431l4.5.8a7 7 0 0 1 1.8 3 19.3 19.3 0 0 1 1 4.3 84.8 84.8 0 0 1 1 9.5 113 113 0 0 1-.6 17.5c-.8 7.7-3.8 36.8-17.3 29.5-1.7-1-3.2 1.6-1.5 2.6 17.2 9.5 20.6-22 21.7-32 1-9.6 1.3-20-.7-29.3-1-5-5.6-12-11.4-8.2-1.6 1 0 3.6 1.5 2.6z" id="_18" data-name="18"/>
    <path class="cls-4" d="M884.6 438.8c7 6-.8 16.4 3 24.2.8 1.8 3.4.3 2.6-1.5-4-8.3 5-17.6-3.4-25-1.5-1-3.6 1-2 2.2z" id="_17" data-name="17"/>
    <path class="cls-4" d="M876.8 461a17 17 0 0 0 9.3 12.7l.4-2.7-5.2 2c-1.8.6-1 3.5.8 2.8l5.2-2c1-.3 1.6-2 .4-2.7a14.2 14.2 0 0 1-8-10.8c-.2-2-3-1-2.8.8z" id="_16" data-name="16"/>
    <path class="cls-4" d="M880.5 490a1 1 0 0 1 .6-1.6c1-.4 2 .5 2.2 1.3.8 1.7 3.4.2 2.6-1.5a4.7 4.7 0 0 0-6-2.5 4.2 4.2 0 0 0-2 5.8c1 1.7 3.6 0 2.7-1.5z" id="_15" data-name="15"/>
    <path class="cls-4" d="M610.2 410.7a42.2 42.2 0 0 1 16.8-12.5 15.6 15.6 0 0 1 12.7.5c1.6.8 8.8 4.2 9 6 .5 2.4-2.3 4.5-4 5.5a32 32 0 0 1-3.8 2 33.8 33.8 0 0 1-29.3-1.5c-1.7-1-3.3 1.7-1.6 2.6a37.3 37.3 0 0 0 25.4 3.7c4.6-1 17.6-5 17.2-11.2-.3-3.6-5.3-6-7.8-7.7-3.6-2-7.7-4-12-4-9 0-19.4 7.7-24.8 14.5-1 1.6 1 3.7 2.2 2.2z" id="_14" data-name="14"/>
    <path class="cls-4" d="M518 419.7c7.5 2.8 11.3-4.5 15.4-9.2 7.5-8.6 19.8-6 29.3-2.8 2.5.8 7 2 7.6 5.3.7 4.5-4.6 5.8-7.3 6.8a115 115 0 0 1-14.3 4.5c-10 2.3-20.6 2-29-4.4-1.7-1.2-3.2 1.4-1.6 2.5 9.5 7 21.4 7 32.4 4.4 6-1.5 12.4-3.3 18-6 2.8-1.5 5.3-4 5-7.4-.3-4-3.8-6.5-7.3-8a56.5 56.5 0 0 0-16.5-4c-5-.2-10.2.6-14.4 3.4-5 3.4-8.8 14.6-16.2 12-1.8-.8-2.6 2-.8 2.8z" id="_13" data-name="13"/>
    <path class="cls-4" d="M513 439.2a46.7 46.7 0 0 0 51-9.5c1.5-1.3-.7-3.4-2-2a43.6 43.6 0 0 1-47.3 9c-1.8-.8-3.3 1.8-1.6 2.5z" id="_12" data-name="12"/>
    <path class="cls-4" d="M613.2 426.6c12.4 4.8 29 9.3 38-3.6 1.2-1.6-1.4-3-2.5-1.5-8.3 11.6-24 6.4-34.7 2.3-1.8-.7-2.6 2.2-.8 2.8z" id="_11" data-name="11"/>
    <path class="cls-4" d="M544.5 315.6a70.5 70.5 0 0 1 61-2c1.7 1 3.3-1.7 1.5-2.4a73.7 73.7 0 0 0-64 1.8c-1.7 1-.2 3.5 1.5 2.6z" id="_10" data-name="10"/>
    <path class="cls-4" d="M476.2 343.2c0-15.7 5.8-30.3 13.2-43.8 7.8-14 16.8-27.6 25.4-41.2 8.4-13.5 16-29.6 33.8-30.7 15.4-1 28.7 8.4 39.6 18.3a235.5 235.5 0 0 1 35.3 40.4c1 1.6 3.7 0 2.6-1.5A241.7 241.7 0 0 0 593 246c-10.6-10-23-19.7-38-21.3-7-.7-14.2.3-20.4 3.8-6.5 3.7-10.7 9.8-14.6 16-10 15.7-20 31.3-29.5 47.3-9.3 15.8-17.2 32.8-17 51.4a1.5 1.5 0 0 0 3 0z" id="_9" data-name="9"/>
    <path class="cls-4" d="M858.3 564.8c1.2-21 2.8-43 14.8-61.2 1.2-1.7-1.4-3.2-2.5-1.6-12.3 18.6-14 41.2-15.2 62.8 0 2 3 2 3 0z" id="_8" data-name="8"/>
    <path class="cls-4" d="M701 556.6c3 12.6 6 25.2 8.6 38 1.2 5.6 2.4 12.3-.3 17.8-2.6 5-10 8.8-14.8 4L693 619c16.2 5.7 19.8 24.4 25.8 38.4 6.3 14.7 16 27.5 25.6 40 1.2 1.5 3.8 0 2.6-1.5-11-14.6-21.6-29-28-46.3-5-13.5-10.4-28.4-25.2-33.7-1.4-.6-2.4 1.5-1.4 2.5 3.3 3.3 7.8 3.8 12 2 5.7-2.2 8.7-7.2 9.4-13 .8-7.8-1.7-15.7-3.4-23l-6.4-28.8c-.4-1.8-3.3-1-3 .8z" id="_7" data-name="7"/>
    <path class="cls-4" d="M597.4 347.3c-3 4.6-11.3-5.6-15.8-5.5a7 7 0 0 0-4.3 1.7 19.5 19.5 0 0 0-2.5 2.6l-1.2 1.5q-1.5 2.2-4.5 1.2c.7-1.8-2.2-2.6-2.8-.8a3.7 3.7 0 0 0 3.4 5c4 .3 5.8-3.5 8-5.7 6.3-6 9.4 2.2 14.7 4a6.4 6.4 0 0 0 7.7-2.5c1-1.6-1.5-3-2.6-1.5z" id="_6" data-name="6"/>
    <path class="cls-4" d="M554.6 358.2c-.2 6.7 3.7 10 9.3 12.4 9 4 9.6 13.3 13 21.5.8 1.8 3.4.3 2.7-1.5-2.6-6-3.5-12.8-7.8-18-4.8-5.5-14.6-5-14.4-14.3 0-2-3-2-3 0z" id="_5" data-name="5"/>
    <path class="cls-4" d="M466 482.8a91 91 0 0 0 22 35.3c9 9 22.5 19.8 36 16.8 7.2-1.5 13-6.4 19.4-10a83.5 83.5 0 0 1 24.7-9.3c18-3.8 37-2.3 54.8 1.4 15 3 33 10.6 47.3 1.3 1.7-1 .2-3.6-1.5-2.6-13 8.6-30 1.4-44-1.5-15.2-3.2-31-5-46.4-3.3a91.6 91.6 0 0 0-39 13c-6.5 4-13.3 9-21.5 8.2-8-.8-15.3-6-21.4-11a87.4 87.4 0 0 1-27-39.2c-.7-1.8-3.6-1-3 .8z" id="_4" data-name="4"/>
    <path class="cls-4" d="M467 435a21 21 0 0 1-1-16.7 1.5 1.5 0 0 0-.8-1.7c-2.6-2-6-4-9.3-2.8s-5.5 5.3-6.6 8.7c-3.2 10.2-1 22 1.8 32a121 121 0 0 0 5.3 15.6c1 2.2 2.4 4 5 3.4 3.4-1 4-7 4.8-9.8a79.3 79.3 0 0 0 2.4-18c0-1.8-3-1.8-3 0a77.2 77.2 0 0 1-1 11.7c-.6 3-1 7.4-2.5 10l-2.7 2.2-1.2-3-1.5-4.4-3-9.3a67.7 67.7 0 0 1-2.8-20 34.3 34.3 0 0 1 1.3-9.4c.4-1.3 1.8-5 3.2-5.7 2.5-1.4 6.2 0 8.2 1.6l-.7-1.7a24 24 0 0 0 1.6 19c.8 1.8 3.4.3 2.5-1.4z" id="_3" data-name="3"/>
    <path class="cls-4" d="M447 388.4c3.4-9.5 11-16.2 18-23a163.2 163.2 0 0 0 18.6-22c11.8-16.3 21.5-34 34.6-49.5 12.8-15.2 29.3-28 49.6-30.5 9.7-1 19.8 0 28.5 5 9.4 5 16.2 13.7 22.5 22.2Q641 320.5 661 352c1 1.5 3.8 0 2.7-1.6Q644 319.4 622 290c-6-8-12-16-20-21.6a47 47 0 0 0-25.7-8.2c-44-1.5-68 41.5-89.3 73-7 10.6-14.6 20.6-23.6 29.5-7.6 7.4-15.6 14.5-19.2 25-.7 1.7 2.2 2.5 3 .7z" id="_2" data-name="2"/>
    <path class="cls-4" d="M442.7 406.4c-3.8 20.3-6.3 43.4-1 63.7 1.6 6.8 5.7 13.8 12.8 16a12 12 0 0 0 14.7-7c.7-1.8-2.2-2.6-3-.8-3.8 9.5-15.2 4.3-19-2-4-6.7-4.3-15.6-4.8-23a183 183 0 0 1 3.2-46c.4-2-2.5-2.7-3-.8z" id="_1" data-name="1"/>
  </g>
</svg>
