<svg xmlns="http://www.w3.org/2000/svg" xmlns:xlink="http://www.w3.org/1999/xlink" viewBox="0 0 768 768">
  <defs>
    <style>
        .remember {
            transform:
    translate(0 -45.8);
        }

      .cls-1 {
        fill: none;
      }

      .cls-2 {
        clip-path: url(#clip-path);
      }

      .cls-3 {
        clip-path: url(#clip-path-2);
      }

      .cls-4 {
        fill: #fff;
      }
    </style>
    <clipPath id="clip-path" transform="translate(0 -45.8)">
      <polygon class="cls-1" points="92.2 73.42 674.75 257.23 210.38 725.05 92.2 73.42"/>
    </clipPath>
    <clipPath id="clip-path-2" transform="translate(0 -45.8)">
      <rect class="cls-1" y="58.34" width="768.6" height="710.26"/>
    </clipPath>
  </defs>
  <title>split-cropped</title>
  <g id="imageclip">
    <g class="cls-2">
      <g id="split-cropped.psd">
        <g class="cls-3">
          <image id="split-cropped" width="1212" height="1120" transform="translate(0 12.55) scale(0.63)" xlink:href="split-cropped1.png"/>
        </g>
      </g>
    </g>
  </g>
  <g id="traces">
    <g id="_47" data-name="47">
      <path class="cls-4" d="M443.2,533.74a14.36,14.36,0,0,1-3.82,7.39c-1.34,1.39.77,3.51,2.12,2.12a17.2,17.2,0,0,0,4.59-8.71c.37-1.89-2.52-2.69-2.89-.8Z" transform="translate(0 -45.8)"/>
    </g>
    <g id="_46" data-name="46">
      <path class="cls-4" d="M456.11,340.69a59.85,59.85,0,0,1,8.28,14.63c.69,1.78,3.6,1,2.89-.8a62.49,62.49,0,0,0-8.58-15.34c-1.16-1.51-3.76,0-2.59,1.51Z" transform="translate(0 -45.8)"/>
    </g>
    <g id="_45" data-name="45">
      <path class="cls-4" d="M469.86,361.86a58.84,58.84,0,0,1,4.75,21.77c.05,1.93,3.05,1.93,3,0a62.83,62.83,0,0,0-5.16-23.29c-.76-1.77-3.34-.24-2.59,1.51Z" transform="translate(0 -45.8)"/>
    </g>
    <g id="_44" data-name="44">
      <path class="cls-4" d="M104,324.53c-.53-4.1-1.22-11.59,4.26-12.83s8.29,5.81,9.68,9.81c.63,1.81,3.53,1,2.89-.8-1.9-5.49-5.33-12.92-12.42-12.06-7.68.93-8.18,10-7.41,15.87.24,1.89,3.25,1.91,3,0Z" transform="translate(0 -45.8)"/>
    </g>
    <g id="_43" data-name="43">
      <path class="cls-4" d="M509.19,312.6a16.64,16.64,0,0,1,13.31,4.08c1.44,1.28,3.57-.84,2.12-2.12a19.53,19.53,0,0,0-15.43-5c-1.89.22-1.92,3.22,0,3Z" transform="translate(0 -45.8)"/>
    </g>
    <g id="_42" data-name="42">
      <path class="cls-4" d="M523,322.51a41.32,41.32,0,0,0-34.69-5.95,1.5,1.5,0,0,0,.8,2.89,38.39,38.39,0,0,1,32.37,5.65c1.59,1.1,3.09-1.49,1.51-2.59Z" transform="translate(0 -45.8)"/>
    </g>
    <g id="_41" data-name="41">
      <path class="cls-4" d="M488.83,341.33a30.27,30.27,0,0,0,29.42-5.06c1.51-1.21-.63-3.32-2.12-2.12a27.21,27.21,0,0,1-26.5,4.29c-1.82-.65-2.6,2.25-.8,2.89Z" transform="translate(0 -45.8)"/>
    </g>
    <g id="_40" data-name="40">
      <path class="cls-4" d="M344.47,328.62c12.28-.84,29-11.36,39.18-.14,1.3,1.43,3.42-.69,2.12-2.12-11.2-12.32-28-1.65-41.3-.74-1.92.13-1.93,3.13,0,3Z" transform="translate(0 -45.8)"/>
    </g>
    <g id="_39" data-name="39">
      <path class="cls-4" d="M346.91,349.55a65,65,0,0,0,33.45-4.4c1.76-.73,1-3.63-.8-2.89a63.32,63.32,0,0,1-32.66,4.3c-1.91-.25-1.89,2.75,0,3Z" transform="translate(0 -45.8)"/>
    </g>
    <g id="_38" data-name="38">
      <path class="cls-4" d="M385.42,454a367.56,367.56,0,0,0-19.33,56.72c-.47,1.87,2.42,2.67,2.89.8a362.87,362.87,0,0,1,19-56c.76-1.75-1.82-3.28-2.59-1.51Z" transform="translate(0 -45.8)"/>
    </g>
    <g id="_37" data-name="37">
      <path class="cls-4" d="M150.68,472.92a150.58,150.58,0,0,0,30,43.1,1.5,1.5,0,0,0,2.12-2.12,148.23,148.23,0,0,1-29.5-42.49c-.81-1.75-3.39-.23-2.59,1.51Z" transform="translate(0 -45.8)"/>
    </g>
    <g id="_36" data-name="36">
      <path class="cls-4" d="M165.08,460.18a70.37,70.37,0,0,1,18.69,33.6c.45,1.88,3.34,1.08,2.89-.8a73.36,73.36,0,0,0-19.46-34.92,1.5,1.5,0,0,0-2.12,2.12Z" transform="translate(0 -45.8)"/>
    </g>
    <g id="_35" data-name="35">
      <path class="cls-4" d="M414.8,263.88a20.2,20.2,0,0,1,4.81,18.38c-.43,1.88,2.46,2.68,2.89.8a23.39,23.39,0,0,0-5.58-21.3c-1.3-1.43-3.42.69-2.12,2.12Z" transform="translate(0 -45.8)"/>
    </g>
    <g id="_34" data-name="34">
      <path class="cls-4" d="M483.64,354.37a49.7,49.7,0,0,0,33.14,4.89c1.89-.37,1.09-3.26-.8-2.89a46.41,46.41,0,0,1-30.83-4.59c-1.71-.9-3.22,1.69-1.51,2.59Z" transform="translate(0 -45.8)"/>
    </g>
    <g id="_33" data-name="33">
      <path class="cls-4" d="M344.42,370.19a55,55,0,0,0,28.32-8.64c1.62-1,.12-3.63-1.51-2.59a51.8,51.8,0,0,1-26.8,8.24c-1.93.05-1.93,3.05,0,3Z" transform="translate(0 -45.8)"/>
    </g>
    <g id="_32" data-name="32">
      <path class="cls-4" d="M114.49,293.14c-5.66-45.75-11.52-95.73,7.43-139.32C141.1,109.7,186.27,80.24,230,64c44.13-16.43,93.28-20.29,139-8,41.3,11.13,79.23,34.87,106.73,67.69C511.52,166.5,522,221.3,531.12,274.85c.32,1.9,3.21,1.09,2.89-.8-8.43-49.59-17.75-100.7-48.16-142.17C460.28,97,423.51,70.89,382.65,57c-44.83-15.19-94.06-14.53-139.17-.79A248.77,248.77,0,0,0,178,87.13c-19.63,13.09-37.87,29.09-50.4,49.3C98.74,183,105.09,241.36,111.49,293.14c.23,1.89,3.24,1.91,3,0Z" transform="translate(0 -45.8)"/>
    </g>
    <g id="_31" data-name="31">
      <path class="cls-4" d="M543.24,285.21c-6.24-7.66-16.71-9.52-26-7.18-11.79,3-20.58,12.59-28.47,21.23a1.52,1.52,0,0,0,.66,2.51,14.16,14.16,0,0,0,15.63-5.34c1.16-1.54-1.44-3-2.59-1.51a11,11,0,0,1-12.24,4l.66,2.51c7-7.65,14.5-16.08,24.52-19.66,8.87-3.17,19.49-2,25.69,5.61,1.22,1.5,3.33-.64,2.12-2.12Z" transform="translate(0 -45.8)"/>
    </g>
    <g id="_30" data-name="30">
      <path class="cls-4" d="M290.81,310.53c28.13-26.12,69.1-17.13,102.44-8.82,1.87.47,2.67-2.43.8-2.89-34.5-8.61-76.34-17.35-105.36,9.59-1.42,1.32.71,3.43,2.12,2.12Z" transform="translate(0 -45.8)"/>
    </g>
    <g id="_29" data-name="29">
      <path class="cls-4" d="M356.77,328.37c-.34,5.41-2.76,11.2-8.52,12.72-5.55,1.47-9.68-2.87-13.08-6.54l-.66,2.51,11.68-1.72c1.9-.28,1.09-3.17-.8-2.89l-11.68,1.72c-1.19.18-1.35,1.77-.66,2.51,4.58,4.94,10.23,9.63,17.33,6.86,6.27-2.45,9-8.85,9.39-15.16.12-1.93-2.88-1.92-3,0Z" transform="translate(0 -45.8)"/>
    </g>
    <g id="_28" data-name="28">
      <path class="cls-4" d="M491,326.49c-.52-2.38-1.58-5.15-4.36-5.53-2.14-.29-5.33,1.4-6.9,2.76a1.51,1.51,0,0,0-.39,1.46,19.29,19.29,0,0,0,1.82,4.27c.72,1.53,1.33,3.6,2.39,4.94,1.51,1.9,3.94,1,6,.7,2.84-.41,5.43-.39,6.77-3.23,1.54-3.27,2.08-7.41,3-10.89a1.5,1.5,0,0,0-2.89-.8l-1.62,6c-.8,3-1.42,5.35-4.89,5.84a13,13,0,0,1-3,.42c-1.36-.2-1.36-.52-2-1.79-.91-1.92-2.39-4.19-2.81-6.27l-.39,1.46a7.59,7.59,0,0,1,2.92-1.47q1.23-1,2,.79a2.32,2.32,0,0,1,1.37,2.12c.41,1.89,3.31,1.09,2.89-.8Z" transform="translate(0 -45.8)"/>
    </g>
    <g id="_27" data-name="27">
      <path class="cls-4" d="M470.52,352.48c1.31-8.12-.57-16.12,0-24.25.32-4.47,1.55-9.21,4.76-12.51s7.67-4.62,11.9-5.85a227.13,227.13,0,0,1,55.22-8.74c8.64-.3,23.08-2.63,24.38,9.1.5,4.53-.73,9.19-1.49,13.64-.71,4.19-1.42,8.39-2.27,12.56-3.2,15.67-9.11,32.76-23.35,41.76-16.56,10.47-39.75,7-58.2,5.16-1.92-.19-1.91,2.81,0,3,18.63,1.88,41.41,5.09,58.43-4.79,15.49-9,22.32-26.79,25.83-43.44,1-4.76,1.79-9.56,2.6-14.35.76-4.5,2-9.26,1.47-13.85-.86-7.69-6.06-11.39-13.43-11.84-21.06-1.29-43.17,2-63.53,7.16-8.83,2.25-19,4.42-23.15,13.52-4.75,10.4-.33,22.08-2.08,32.92-.3,1.89,2.59,2.7,2.89.8Z" transform="translate(0 -45.8)"/>
    </g>
    <g id="_26" data-name="26">
      <path class="cls-4" d="M536.33,297.24l34.33,10a1.52,1.52,0,0,0,1.9-1.45l.22-5.76h-3a66.73,66.73,0,0,1,.5,11.71c-.09,1.93,2.92,1.93,3,0a66.73,66.73,0,0,0-.5-11.71,1.5,1.5,0,0,0-3,0l-.22,5.76,1.9-1.45-34.33-10a1.5,1.5,0,0,0-.8,2.89Z" transform="translate(0 -45.8)"/>
    </g>
    <g id="_25" data-name="25">
      <path class="cls-4" d="M469.61,323.49c-12.23-7.43-26-2.61-38.1,2.41-1.76.73-1,3.63.8,2.89,11.31-4.68,24.3-9.69,35.78-2.71,1.65,1,3.16-1.59,1.51-2.59Z" transform="translate(0 -45.8)"/>
    </g>
    <g id="_24" data-name="24">
      <path class="cls-4" d="M313.81,324c-1.48-9,11.55-9.24,17.2-9.84q8.22-.87,16.46-1.57,17-1.44,34-2.15c10.59-.44,21.47-.79,31.73,2.33,4.7,1.43,9.43,3.68,12.72,7.44,4.72,5.39,4.17,12.54,3,19.11C427,349.87,423.18,360,419.42,370s-8.29,18.51-19.14,21.76c-9.57,2.86-20.49,2.1-30.34,1.79a273.7,273.7,0,0,1-34.23-3c-5.58-.89-12.09-2.26-15.48-7.27-2.94-4.34-3.31-10.85-4.09-15.89a231.68,231.68,0,0,1-2.62-39.9c0-1.93-3-1.93-3,0a236.26,236.26,0,0,0,2.73,40.69c1.65,10.59,3.18,19.9,14.46,23.64,5.36,1.78,11.25,2.23,16.83,2.85q10.71,1.2,21.49,1.68c11.8.52,25.12,1.65,36.51-2.21,10-3.37,15-11.16,18.69-20.54C426,361.63,430.8,349,432.4,336.08c3.38-27.35-28.4-29.48-48.2-28.78-16.15.58-32.28,1.73-48.36,3.33-8.66.86-27.12.76-24.93,14.13.31,1.9,3.2,1.09,2.89-.8Z" transform="translate(0 -45.8)"/>
    </g>
    <g id="_23" data-name="23">
      <path class="cls-4" d="M310.35,324.79l-94.59-17.35L169,298.86c-11.73-2.15-25.77-6.66-36.78.08-1.64,1-.14,3.6,1.51,2.59,6.54-4,14.08-3.39,21.35-2.17s14.6,2.66,21.89,4l43.88,8,88.74,16.28c1.89.35,2.7-2.54.8-2.89Z" transform="translate(0 -45.8)"/>
    </g>
    <g id="_22" data-name="22">
      <path class="cls-4" d="M407.1,435.67c-1.23,9.4,4.65,16.55,14.46,15.41,12.08-1.41,26.19-17.68,36.15-2.58l1.3-2.26-21.81.42c-1.93,0-1.93,3,0,3l21.81-.42a1.51,1.51,0,0,0,1.3-2.26c-5-7.64-13.55-9.49-21.85-6.21-4.78,1.89-9,5-13.92,6.57-8.85,2.89-15.64-2.37-14.43-11.67.25-1.91-2.75-1.89-3,0Z" transform="translate(0 -45.8)"/>
    </g>
    <g id="_21" data-name="21">
      <path class="cls-4" d="M461.18,451.28c-3.89,2.2-4.43,8.44-4.53,12.44-.12,4.85,1.48,9.42,5.31,12.53,1.49,1.21,3.62-.9,2.12-2.12a11.55,11.55,0,0,1-4.33-8.23c-.29-3-.14-10.27,2.94-12a1.5,1.5,0,0,0-1.51-2.59Z" transform="translate(0 -45.8)"/>
    </g>
    <g id="_20" data-name="20">
      <path class="cls-4" d="M384.57,504.77l29.19-10.56,14.6-5.28c4.88-1.76,10.55-4.77,15.84-4.7,4.39.05,7.29,3.46,11.47,4,3.22.44,6.07-.9,8.82-2.4,4.17-2.27,7.81-4.75,12.79-3.35a12.35,12.35,0,0,1,8.76,9.23c.44,1.88,3.33,1.08,2.89-.8a15.48,15.48,0,0,0-13.69-11.84c-3.82-.32-7.07,1.18-10.32,3-2.37,1.35-5,3.22-7.84,3.23s-5.08-2-7.59-3c-4.32-1.79-8.57-1-12.88.44-5.8,1.9-11.51,4.15-17.25,6.23l-35.58,12.87c-1.8.65-1,3.55.8,2.89Z" transform="translate(0 -45.8)"/>
    </g>
    <g id="_19" data-name="19">
      <path class="cls-4" d="M397.29,507.47c13.36,4.21,25.47-4.66,38.73-4.22,7.08.23,13.11,3.26,20.3,1.87,7.38-1.43,14.31-5.45,22-4,1.89.37,2.69-2.53.8-2.89-6.13-1.19-11.65.53-17.5,2.31-3.62,1.11-7.31,2.22-11.14,2.08S443,501,439.12,500.5c-14-1.85-27.19,8.44-41,4.08-1.85-.58-2.64,2.31-.8,2.89Z" transform="translate(0 -45.8)"/>
    </g>
    <g id="_18" data-name="18">
      <path class="cls-4" d="M398.77,520.42c24.22,1.65,54.49,18.74,75.55-1.46,1.4-1.34-.73-3.46-2.12-2.12-20,19.2-50.33,2.15-73.42.58-1.93-.13-1.92,2.87,0,3Z" transform="translate(0 -45.8)"/>
    </g>
    <g id="_17" data-name="17">
      <path class="cls-4" d="M460.53,529.72a5.67,5.67,0,0,0-7.14,6.47,1.51,1.51,0,0,0,1.85,1,1.54,1.54,0,0,0,1-1.85,2.64,2.64,0,0,1,3.45-2.78,1.5,1.5,0,0,0,.8-2.89Z" transform="translate(0 -45.8)"/>
    </g>
    <g id="_16" data-name="16">
      <path class="cls-4" d="M421,574.78a26.27,26.27,0,0,1,42-4.91c1.34,1.39,3.46-.73,2.12-2.12a29.31,29.31,0,0,0-46.69,5.51,1.5,1.5,0,0,0,2.59,1.51Z" transform="translate(0 -45.8)"/>
    </g>
    <g id="_15" data-name="15">
      <path class="cls-4" d="M174.48,450c17.68,16.59,20.9,42.21,32.07,62.79,12.25,22.59,31.16,40.58,49.6,58.09,1.4,1.33,3.52-.79,2.12-2.12-19.07-18.1-38.66-36.73-50.7-60.47-10.24-20.18-13.82-44.33-31-60.41-1.41-1.32-3.53.8-2.12,2.12Z" transform="translate(0 -45.8)"/>
    </g>
    <g id="_14" data-name="14">
      <path class="cls-4" d="M134,433.3c1.2,23.16,2.63,48.07,15.57,68.15,12.68,19.68,34.6,32.14,53.9,44.38,44.61,28.3,92,54.15,141.4,73.19,26.77,10.33,55.73,17.29,84.27,10.62,1.88-.44,1.08-3.33-.8-2.89-25.52,6-51.49.63-75.73-8s-47.55-20-70.44-31.57q-33-16.73-64.62-36.07-16.39-10-32.36-20.76c-9.4-6.35-18.7-13.1-26.3-21.59-18.49-20.68-20.52-49-21.89-75.42-.1-1.92-3.1-1.93-3,0Z" transform="translate(0 -45.8)"/>
    </g>
    <g id="_13" data-name="13">
      <path class="cls-4" d="M534,392.06c-14.54,29.64-17.73,62.68-25.23,94.43-3.91,16.55-9.84,32.1-16.37,47.77a248.91,248.91,0,0,0-9.29,25.24c-2.38,8.08-4.28,16.31-6.79,24.35-5.37,17.24-15,35.43-33.58,40.88-1.85.54-1.06,3.44.8,2.89,32.45-9.53,35.67-48.32,45-75.18,6-17.42,14.47-33.88,19.62-51.63,4.81-16.55,7.7-33.55,11.09-50.42,3.91-19.47,8.57-38.88,17.36-56.81.85-1.73-1.74-3.25-2.59-1.51Z" transform="translate(0 -45.8)"/>
    </g>
    <g id="_12" data-name="12">
      <path class="cls-4" d="M535.51,368.51c-1.22-9.77-2.66-19.54-3.61-29.34s-.41-20.25,7.67-27c1.48-1.24-.65-3.35-2.12-2.12-7,5.87-9.17,14.87-8.93,23.72.32,11.56,2.56,23.25,4,34.72.24,1.89,3.24,1.91,3,0Z" transform="translate(0 -45.8)"/>
    </g>
    <g id="_11" data-name="11">
      <path class="cls-4" d="M491.21,459.86a62.35,62.35,0,0,1,6.11,33.52c-.18,1.92,2.82,1.91,3,0a65.25,65.25,0,0,0-6.52-35c-.85-1.73-3.44-.21-2.59,1.51Z" transform="translate(0 -45.8)"/>
    </g>
    <g id="_10" data-name="10">
      <path class="cls-4" d="M477.9,459c11.43-3.41,18.76-13.83,20-25.46,1.65-15.08-5.74-28.88-14.19-40.77-1.11-1.56-3.71-.06-2.59,1.51,7.14,10,13.59,21.22,14,33.86.39,12.16-5.88,24.34-18,28-1.85.55-1.06,3.45.8,2.89Z" transform="translate(0 -45.8)"/>
    </g>
    <g id="_9" data-name="9">
      <path class="cls-4" d="M475.69,130.87c-24.86-17.29-56-7.3-82.86-1.47-17.71,3.85-34.4,4.51-52-.21-15.53-4.16-30.44-10.63-46.38-13.26-13.69-2.26-28.26-1.87-40.65,5-11.85,6.6-21.9,18.32-29.61,29.3-3.66,5.22-6.86,11.41-6.5,18,.33,6,3.75,10.81,8,14.85,11.25,10.76,24,20.81,25,37.71,1.22,19.47-15.05,27-30.24,33.61-11.79,5.13-24.86,13.22-25.68,27.43-.11,1.93,2.89,1.92,3,0,.84-14.52,16-21.33,27.62-26.31,10.39-4.47,21.48-9.76,26.08-20.85,4.75-11.46,1.58-24.49-5.1-34.46a73.48,73.48,0,0,0-12.75-14.12c-5.69-5-12.9-10.24-13-18.63-.06-8.15,5.61-15.43,10.58-21.37A149.73,149.73,0,0,1,245.14,131c12-10.93,27-14.59,42.92-12.92,15.56,1.63,30.13,7.45,45,12,14.65,4.48,29.21,6.93,44.53,5.05,31.14-3.82,67.46-21.93,96.61-1.66,1.59,1.1,3.09-1.49,1.51-2.59Z" transform="translate(0 -45.8)"/>
    </g>
    <g id="_8" data-name="8">
      <path class="cls-4" d="M94.21,300.83c-2,8.27-4.08,16.83-3.38,25.41s5,15.49,7.21,23.5c2.42,8.77,1.64,18,2.73,26.92a61.34,61.34,0,0,0,6.47,20.7c14,27.23,44.13,43.87,74,46.5,1.92.17,1.91-2.83,0-3-29.22-2.58-59.06-19.36-72.09-46.45a61.69,61.69,0,0,1-5.83-23.25c-.47-7.43-.34-15-2.35-22.23-2.14-7.72-6.41-14.58-7.1-22.7-.71-8.32,1.33-16.59,3.27-24.61.45-1.88-2.44-2.68-2.89-.8Z" transform="translate(0 -45.8)"/>
    </g>
    <g id="_7" data-name="7">
      <path class="cls-4" d="M155.19,369.8a27.18,27.18,0,0,0,2.1,18.74c1.43,2.78,3.43,4.89,5.42,7.26s3.4,6.37-1.1,6.44c-2,0-5.12-2-7-2.76-7.8-3.16-16.26-5.78-23.32-10.43-8.18-5.39-11.8-13.94-13.64-23.24-.37-1.89-3.27-1.09-2.89.8,1.75,8.88,5.2,17.47,12.49,23.22,8.08,6.37,19,9.47,28.39,13.28,3,1.2,7.11,3.74,10.16,1.38,1.87-1.45,2.31-4.14,1.73-6.32-1-3.88-5-6.5-7-9.83a23.94,23.94,0,0,1-2.52-17.75c.43-1.88-2.46-2.68-2.89-.8Z" transform="translate(0 -45.8)"/>
    </g>
    <g id="_6" data-name="6">
      <path class="cls-4" d="M129.51,351c3.36-.26,7.2-1.1,10.55-.64,4.5.61,6,5.29,7.24,9,.6,1.83,3.5,1,2.89-.8-1.27-3.88-2.77-8-6.53-10.16-4-2.3-9.79-.74-14.16-.4-1.91.15-1.93,3.15,0,3Z" transform="translate(0 -45.8)"/>
    </g>
    <g id="_5" data-name="5">
      <path class="cls-4" d="M104.68,304a30.63,30.63,0,0,1,28.9,21.78c.55,1.85,3.45,1.06,2.89-.8a33.7,33.7,0,0,0-31.79-24,1.5,1.5,0,0,0,0,3Z" transform="translate(0 -45.8)"/>
    </g>
    <g id="_4" data-name="4">
      <path class="cls-4" d="M392.14,207.19C427.83,217.35,463,196.67,499,200.68c1.92.21,1.9-2.79,0-3-35.64-4-70.71,16.67-106,6.62a1.5,1.5,0,0,0-.8,2.89Z" transform="translate(0 -45.8)"/>
    </g>
    <g id="_3" data-name="3">
      <path class="cls-4" d="M434,235.84a103.26,103.26,0,0,0,57.13-2.26c1.82-.6,1-3.5-.8-2.89a100.21,100.21,0,0,1-55.53,2.26c-1.88-.46-2.68,2.43-.8,2.89Z" transform="translate(0 -45.8)"/>
    </g>
    <g id="_2" data-name="2">
      <path class="cls-4" d="M458.14,260a36.16,36.16,0,0,0,4.94,26.73c1,1.63,3.63.12,2.59-1.51A33,33,0,0,1,461,260.84c.37-1.89-2.52-2.69-2.89-.8Z" transform="translate(0 -45.8)"/>
    </g>
    <g id="_1" data-name="1">
      <path class="cls-4" d="M436.5,264.64a107.9,107.9,0,0,1-3,36.18c-.48,1.87,2.41,2.67,2.89.8a110.42,110.42,0,0,0,3.08-37c-.16-1.91-3.17-1.93-3,0Z" transform="translate(0 -45.8)"/>
    </g>
  </g>
</svg>
