<svg xmlns="http://www.w3.org/2000/svg" xmlns:xlink="http://www.w3.org/1999/xlink" viewBox="0 0 1176.9 822.31">
  <defs>
    <style>
      .cls-1{fill:none;}.cls-2{clip-path:url(#clip-path);}.cls-4{opacity:0.2;}.cls-5{fill:#fff;}
    </style>
    <clipPath id="clip-path" transform="translate(346.9 -4.13)">
      <path class="cls-1" d="M92.2 73.4l582.5 183.8L210.4 725 92.2 73.4z"/>
    </clipPath>
  </defs>
  <title>
    split
  </title>
  <g class="cls-2" id="imageclip">
    <g class="cls-3" id="split.psd">
      <image id="split" width="1437" height="1211" transform="matrix(.63 0 0 .63 265.62 54.34)" xlink:href="./split.png"/>
    </g>
    <path class="cls-4" d="M0 0h1130.6v774H0z"/>
  </g>
  <g id="traces">
    <path class="cls-5" d="M790 529.6a14.4 14.4 0 0 1-3.7 7.4c-1.4 1.4.7 3.5 2 2a17.2 17.2 0 0 0 4.7-8.6c.4-2-2.5-2.7-3-.8z" id="_47" data-name="47"/>
    <path class="cls-5" d="M803 336.6a60 60 0 0 1 8.3 14.6c.7 1.8 3.6 1 3-.8a62.5 62.5 0 0 0-8.7-15.3c-1.2-1.5-3.8 0-2.6 1.6z" id="_46" data-name="46"/>
    <path class="cls-5" d="M816.8 357.7a58.8 58.8 0 0 1 4.7 21.8c0 2 3 2 3 0a62.8 62.8 0 0 0-5.2-23.3c-.7-1.8-3.3-.2-2.5 1.5z" id="_45" data-name="45"/>
    <path class="cls-5" d="M451 320.4c-.6-4-1.3-11.6 4.2-12.8s8.2 5.8 9.6 9.8c.7 1.8 3.6 1 3-.8-2-5.5-5.4-13-12.5-12-7.7.8-8.2 10-7.4 15.8 0 2 3 2 3 0z" id="_44" data-name="44"/>
    <path class="cls-5" d="M856 308.5a16.6 16.6 0 0 1 13.4 4c1.4 1.3 3.6-.8 2-2a19.5 19.5 0 0 0-15.3-5c-1.8.2-1.8 3.2 0 3z" id="_43" data-name="43"/>
    <path class="cls-5" d="M870 318.4a41.3 41.3 0 0 0-34.8-6 1.5 1.5 0 0 0 .8 3 38.4 38.4 0 0 1 32.4 5.6c1.6 1 3-1.5 1.5-2.6z" id="_42" data-name="42"/>
    <path class="cls-5" d="M835.7 337.2a30.3 30.3 0 0 0 29.4-5c1.7-1.3-.5-3.4-2-2.2a27.2 27.2 0 0 1-26.5 4.3c-1.8-.6-2.6 2.3-.8 3z" id="_41" data-name="41"/>
    <path class="cls-5" d="M691.4 324.5c12.3-.8 29-11.4 39.2 0 1.2 1.3 3.4-.8 2-2.3-11-12.3-28-1.6-41.2-.7-2 0-2 3 0 3z" id="_40" data-name="40"/>
    <path class="cls-5" d="M693.8 345.4a65 65 0 0 0 33.5-4.4c1.7-.7 1-3.6-.8-3a63.3 63.3 0 0 1-32.7 4.4c-2-.2-2 2.8 0 3z" id="_39" data-name="39"/>
    <path class="cls-5" d="M732.3 450a367.6 367.6 0 0 0-19.3 56.6c-.5 2 2.4 2.7 3 .8a363 363 0 0 1 19-56c.6-1.8-2-3.3-2.7-1.5z" id="_38" data-name="38"/>
    <path class="cls-5" d="M497.6 468.8a150.6 150.6 0 0 0 30 43 1.5 1.5 0 0 0 2-2 148.2 148.2 0 0 1-29.4-42.5c-.8-1.8-3.4-.2-2.6 1.5z" id="_37" data-name="37"/>
    <path class="cls-5" d="M512 456a70.4 70.4 0 0 1 18.7 33.7c.4 1.8 3.3 1 3-.8a73.4 73.4 0 0 0-19.6-35 1.5 1.5 0 0 0-2 2z" id="_36" data-name="36"/>
    <path class="cls-5" d="M761.7 259.8a20.2 20.2 0 0 1 4.8 18.3c-.4 2 2.5 2.8 3 1a23.4 23.4 0 0 0-5.7-21.4c-1.3-1.4-3.4.7-2 2z" id="_35" data-name="35"/>
    <path class="cls-5" d="M830.5 350.2a49.7 49.7 0 0 0 33.2 5c2-.4 1-3.3-.8-3a46.4 46.4 0 0 1-31-4.5c-1.7-1-3.2 1.6-1.5 2.5z" id="_34" data-name="34"/>
    <path class="cls-5" d="M691.3 366a55 55 0 0 0 28.3-8.6c1.7-1 .2-3.6-1.5-2.6a51.8 51.8 0 0 1-26.7 8.3c-2 0-2 3 0 3z" id="_33" data-name="33"/>
    <path class="cls-5" d="M461.4 289c-5.7-45.7-11.5-95.7 7.4-139.3 19.2-44 64.4-73.6 108-89.8 44.2-16.6 93.4-20.4 139-8 41.4 11 79.3 34.7 106.8 67.6 35.8 42.8 46.3 97.6 55.4 151 .3 2 3.2 1.2 3-.7-8.5-49.7-17.8-100.8-48.3-142.2-25.5-35-62.3-61-103.2-75-44.8-15-94-14.5-139-.7a248.8 248.8 0 0 0-65.6 31c-19.7 13-38 29-50.5 49.3-29 46.6-22.5 105-16 156.7 0 2 3 2 3 0z" id="_32" data-name="32"/>
    <path class="cls-5" d="M890 281c-6-7.6-16.6-9.4-26-7-11.7 3-20.4 12.5-28.3 21a1.5 1.5 0 0 0 .6 2.6 14.2 14.2 0 0 0 15.7-5.3c1-1.5-1.5-3-2.6-1.5a11 11 0 0 1-12.3 4l.8 2.5c7-7.7 14.5-16 24.5-19.7 9-3 19.5-2 25.7 5.6 1.2 1.6 3.3-.6 2-2z" id="_31" data-name="31"/>
    <path class="cls-5" d="M637.7 306.4c28-26 69-17 102.4-8.8 2 .4 2.8-2.5 1-3-34.5-8.5-76.4-17.3-105.4 9.7-1.4 1.3.7 3.4 2 2z" id="_30" data-name="30"/>
    <path class="cls-5" d="M703.7 324.2c-.4 5.5-2.8 11.2-8.6 12.8-5.4 1.4-9.5-3-13-6.6l-.6 2.5L693 331c2-.3 1.2-3.2-.7-3l-11.7 1.8c-1.2.2-1.3 1.8-.7 2.6 4.5 5 10.2 9.6 17.3 6.8 6.3-2.4 9-8.8 9.4-15 0-2-3-2-3 0z" id="_29" data-name="29"/>
    <path class="cls-5" d="M838 322.4c-.6-2.4-1.7-5.2-4.5-5.6-2-.3-5.3 1.4-7 2.8a1.5 1.5 0 0 0-.3 1.5 19.3 19.3 0 0 0 2 4.3c.6 1.5 1.2 3.6 2.3 5 1.5 2 4 1 6 .7 2.8-.5 5.4-.4 6.7-3.3 1.6-3.2 2-7.4 3-11a1.5 1.5 0 0 0-3-.7l-1.5 6c-.8 3-1.4 5.4-5 6a13 13 0 0 1-3 .3c-1.2-.2-1.2-.5-2-1.8-.8-2-2.3-4.2-2.7-6.3l-.4 1.5a7.6 7.6 0 0 1 3-1.5q1.2-1 2 .8a2.3 2.3 0 0 1 1.3 2c.3 2 3.2 1.2 2.8-.7z" id="_28" data-name="28"/>
    <path class="cls-5" d="M817.4 348.4c1.3-8.2-.6-16.2 0-24.3.3-4.4 1.6-9 4.8-12.4s7.6-4.6 12-6a227 227 0 0 1 55-8.6c8.7-.3 23.2-2.6 24.5 9 .5 4.6-.8 9.3-1.5 13.7-.7 4.2-1.4 8.4-2.3 12.6-3.3 15.7-9.2 32.8-23.4 41.8-16.6 10.5-39.8 7-58.2 5.2-2-.2-2 2.8 0 3 18.6 2 41.4 5 58.4-4.8 15.5-9 22.3-26.8 25.8-43.4 1-4.8 1.8-9.6 2.6-14.4.8-4.5 2-9.2 1.5-13.8-1-7.7-6-11.4-13.4-12-21-1-43.2 2-63.6 7.3-8.8 2.4-19 4.5-23 13.6-5 10.4-.4 22-2.2 33-.3 1.8 2.6 2.6 3 .7z" id="_27" data-name="27"/>
    <path class="cls-5" d="M883.2 293l34.4 10a1.5 1.5 0 0 0 2-1.3V296h-3a66.7 66.7 0 0 1 .6 11.6c0 2 3 2 3 0a66.7 66.7 0 0 0-.5-11.7 1.5 1.5 0 0 0-3 0l-.2 5.7 2-1.5-34.5-10a1.5 1.5 0 0 0-.8 3z" id="_26" data-name="26"/>
    <path class="cls-5" d="M816.5 319.4c-12.2-7.5-26-2.6-38 2.4-2 .7-1 3.6.7 3 11.3-4.8 24.3-9.8 35.8-2.8 1.6 1 3-1.6 1.5-2.6z" id="_25" data-name="25"/>
    <path class="cls-5" d="M660.7 320c-1.5-9 11.6-9.4 17.2-10l16.4-1.5q17-1.5 34-2.2c10.6-.4 21.4-.8 31.7 2.3 4.8 1.5 9.5 3.7 12.8 7.5 4.7 5.5 4.2 12.6 3 19.2-2 10.5-5.7 20.7-9.5 30.7s-8.3 18.4-19 21.6c-9.7 3-20.6 2-30.5 1.8a273.7 273.7 0 0 1-34.2-3c-5.6-1-12-2.2-15.5-7.2-2.8-4.4-3.2-11-4-16a231.7 231.7 0 0 1-2.6-39.8c0-2-3-2-3 0a236.3 236.3 0 0 0 2.8 40.7c1.6 10.6 3 20 14.4 23.7 5.4 1.8 11.3 2.2 16.8 2.8q10.8 1.2 21.5 1.7c11.7.5 25 1.7 36.4-2.2 10-3.4 15-11 18.7-20.5 5-12 9.7-24.6 11.3-37.6 3.4-27.4-28.4-29.5-48.2-28.8-16 .5-32.2 1.7-48.3 3.3-8.6 1-27 .8-25 14 .4 2 3.3 1.2 3-.7z" id="_24" data-name="24"/>
    <path class="cls-5" d="M657.3 320.7l-94.6-17.4-46.8-8.6c-11.8-2-26-6.6-37 0-1.5 1 0 3.7 1.6 2.7 6.6-4 14-3.4 21.4-2.2s14.6 2.7 22 4l43.8 8 88.7 16.3c2 .4 2.7-2.5.8-3z" id="_23" data-name="23"/>
    <path class="cls-5" d="M754 431.5c-1.2 9.4 4.7 16.6 14.5 15.5 12-1.5 26.2-17.7 36-2.6l1.4-2.3-22 .5c-1.8 0-1.8 3 0 3l22-.4a1.5 1.5 0 0 0 1.2-2c-5-7.8-13.5-9.6-21.8-6.4-4.8 2-9 5-14 6.6-8.8 3-15.6-2.4-14.4-11.7.3-2-2.7-1.8-3 0z" id="_22" data-name="22"/>
    <path class="cls-5" d="M808 447c-3.8 2.3-4.4 8.6-4.5 12.6 0 4.8 1.5 9.4 5.4 12.5 1.3 1.3 3.5-.8 2-2a11.6 11.6 0 0 1-4.4-8.2c-.2-3 0-10.3 3-12a1.5 1.5 0 0 0-1.5-2.6z" id="_21" data-name="21"/>
    <path class="cls-5" d="M731.5 500.6l29.2-10.5 14.6-5.2c4.8-1.8 10.5-4.8 15.8-4.7 4.5.2 7.4 3.6 11.6 4 3.2.5 6-.8 8.8-2.3 4.2-2.3 7.8-4.7 12.8-3.3a12.3 12.3 0 0 1 8.7 9.2c.4 2 3.3 1 2.8-.8a15.5 15.5 0 0 0-13.7-12c-3.7-.2-7 1.3-10.2 3-2.3 1.5-5 3.4-7.8 3.4s-5-2-7.6-3c-4.3-1.8-8.6-1-13 .4l-17 6.2-35.7 13c-1.8.6-1 3.5.8 2.8z" id="_20" data-name="20"/>
    <path class="cls-5" d="M744.2 503.3c13.4 4.3 25.5-4.6 38.7-4.2 7 .4 13 3.4 20.2 2 7.4-1.4 14.3-5.5 22-4 2 .4 2.7-2.5.8-3-6-1-11.6.6-17.5 2.4-3.6 1-7.3 2.2-11 2s-7.6-1.5-11.5-2c-14-2-27.2 8.4-41 4-1.8-.5-2.6 2.4-.8 3z" id="_19" data-name="19"/>
    <path class="cls-5" d="M745.7 516.3c24.2 1.6 54.5 18.7 75.5-1.5 1.4-1.3-.7-3.4-2-2-20 19-50.4 2-73.5.5-2 0-2 3 0 3z" id="_18" data-name="18"/>
    <path class="cls-5" d="M807.4 525.6a5.7 5.7 0 0 0-7 6.5 1.5 1.5 0 0 0 1.7 1 1.5 1.5 0 0 0 1-1.8 2.6 2.6 0 0 1 3.6-2.8 1.5 1.5 0 0 0 .8-3z" id="_17" data-name="17"/>
    <path class="cls-5" d="M768 570.6a26.3 26.3 0 0 1 42-5c1.2 1.5 3.4-.6 2-2a29.3 29.3 0 0 0-46.7 5.5 1.5 1.5 0 0 0 2.6 1.6z" id="_16" data-name="16"/>
    <path class="cls-5" d="M521.4 446c17.7 16.5 21 42 32 62.7 12.3 22.6 31.2 40.5 49.7 58 1.5 1.4 3.6-.7 2.2-2-19-18.2-38.7-36.8-50.7-60.5-10.3-20.2-13.8-44.4-31-60.5-1.4-1.3-3.6 1-2 2.2z" id="_15" data-name="15"/>
    <path class="cls-5" d="M481 429.2c1 23 2.5 48 15.5 68 12.6 19.8 34.6 32.3 54 44.5 44.5 28.3 92 54 141.3 73.2 26.7 10.2 55.7 17.2 84.2 10.5 2-.4 1-3.3-.8-3-25.5 6-51.5.8-75.7-8s-47.5-20-70.4-31.4q-33-16.7-64.6-36-16.3-10-32.3-20.8c-9.3-6.3-18.6-13-26.2-21.6-18.5-20.6-20.5-49-22-75.4 0-2-3-2-3 0z" id="_14" data-name="14"/>
    <path class="cls-5" d="M881 388c-14.6 29.6-17.8 62.6-25.3 94.4-4 16.5-10 32-16.4 47.7a249 249 0 0 0-9.3 25.4c-2.4 8-4.3 16.3-6.8 24.3-5.4 17.3-15 35.4-33.6 41-1.8.4-1 3.3.8 2.8 32.5-9.5 35.7-48.3 45-75.2 6-17.4 14.5-34 19.7-51.6 5-16.6 7.8-33.6 11-50.4 4-19.5 8.7-39 17.5-57 1-1.6-1.7-3-2.6-1.4z" id="_13" data-name="13"/>
    <path class="cls-5" d="M882.4 364.4c-1.2-9.8-2.7-19.6-3.6-29.4s-.4-20.2 7.7-27c1.4-1.2-.7-3.3-2.2-2-7 5.8-9 14.8-9 23.6.4 11.6 2.7 23.3 4 34.8.4 2 3.4 2 3 0z" id="_12" data-name="12"/>
    <path class="cls-5" d="M838 455.7a62.4 62.4 0 0 1 6.2 33.6c-.2 2 2.8 2 3 0a65.3 65.3 0 0 0-6.5-35c-1-1.8-3.4-.3-2.6 1.5z" id="_11" data-name="11"/>
    <path class="cls-5" d="M824.8 455c11.4-3.5 18.8-14 20-25.6 1.6-15-5.7-29-14.2-40.8-1-1.5-3.7 0-2.6 1.6 7.2 10 13.6 21.2 14 33.8.4 12.2-6 24.4-18 28-1.8.6-1 3.5.8 3z" id="_10" data-name="10"/>
    <path class="cls-5" d="M822.6 126.7c-25-17.2-56-7.3-83-1.4-17.6 3.8-34.3 4.5-52-.2-15.4-4-30.3-10.6-46.3-13.2-13.6-2.3-28.2-2-40.6 5-12 6.6-22 18.3-29.6 29.3-3.6 5.3-6.8 11.5-6.4 18 .3 6 3.7 11 8 15 11.2 10.7 24 20.8 25 37.7 1.2 19.4-15 27-30.3 33.6-11.7 5-24.8 13.2-25.6 27.4 0 2 3 2 3 0 .8-14.5 16-21.3 27.6-26.3 10.4-4.5 21.5-9.8 26-21 4.8-11.3 1.7-24.3-5-34.3a73.5 73.5 0 0 0-12.8-14c-5.7-5-13-10.3-13-18.7 0-8 5.6-15.4 10.6-21.3a149.7 149.7 0 0 1 14-15c12-11 27-14.7 43-13 15.5 1.6 30 7.4 45 12 14.6 4.4 29.2 7 44.5 5 31-3.8 67.4-22 96.6-1.7 1.7 1 3.2-1.4 1.6-2.5z" id="_9" data-name="9"/>
    <path class="cls-5" d="M441 296.7c-2 8.3-4 16.8-3.3 25.4s5 15.6 7.2 23.6c2.4 8.8 1.6 18 2.7 27A61.3 61.3 0 0 0 454 393c14 27.3 44.3 44 74 46.5 2 .2 2-2.8 0-3-29-2.5-59-19.3-72-46.4a61.7 61.7 0 0 1-5.8-23.3c-.5-7.4-.3-15-2.3-22.2-2.3-7.7-6.5-14.6-7.2-22.7-.7-8.2 1.3-16.5 3.2-24.5.5-2-2.4-2.7-3-.8z" id="_8" data-name="8"/>
    <path class="cls-5" d="M502 365.7a27.2 27.2 0 0 0 2.2 18.7c1.4 2.8 3.4 5 5.4 7.3s3.4 6.3-1 6.4c-2 0-5.2-2-7-2.6-8-3.2-16.4-5.8-23.4-10.5-8.2-5.5-11.8-14-13.6-23.3-.4-2-3.3-1-3 .8 1.8 9 5.3 17.5 12.6 23.2 8 6.4 19 9.5 28.3 13.3 3 1.2 7.2 3.7 10.2 1.4 2-1.5 2.3-4.2 1.7-6.4-1-3.8-5-6.5-7-9.8a24 24 0 0 1-2.5-17.7c.3-2-2.5-2.7-3-.8z" id="_7" data-name="7"/>
    <path class="cls-5" d="M476.4 347c3.4-.4 7.2-1.2 10.6-.8 4.5.6 6 5.3 7.2 9 .6 2 3.5 1 3-.8-1.4-3.8-3-8-6.6-10-4-2.4-9.8-1-14.2-.5-2 0-2 3 0 3z" id="_6" data-name="6"/>
    <path class="cls-5" d="M451.6 300a30.6 30.6 0 0 1 29 21.7c.4 1.8 3.3 1 2.8-1a33.7 33.7 0 0 0-31.8-24 1.5 1.5 0 0 0 0 3z" id="_5" data-name="5"/>
    <path class="cls-5" d="M739 203c35.7 10.2 71-10.5 107-6.4 1.8.2 1.8-2.8 0-3-35.7-4-70.8 16.6-106 6.6a1.5 1.5 0 0 0-1 3z" id="_4" data-name="4"/>
    <path class="cls-5" d="M781 231.7a103.3 103.3 0 0 0 57-2.2c1.8-.6 1-3.5-.8-3a100.2 100.2 0 0 1-55.5 2.3c-2-.4-2.7 2.5-.8 3z" id="_3" data-name="3"/>
    <path class="cls-5" d="M805 256a36.2 36.2 0 0 0 5 26.6c1 1.6 3.6 0 2.6-1.5a33 33 0 0 1-4.7-24.3c.3-2-2.6-2.7-3-.8z" id="_2" data-name="2"/>
    <path class="cls-5" d="M783.4 260.5a108 108 0 0 1-3 36.2c-.5 2 2.4 2.7 3 .8a110.4 110.4 0 0 0 3-37c-.2-2-3.2-2-3 0z" id="_1" data-name="1"/>
  </g>
</svg>
